<svg width="24" height="24" viewBox="0 0 24 24" fill="none" xmlns="http://www.w3.org/2000/svg">
<rect x="3.25" y="4.5" width="17.5" height="16.25" rx="2.5" fill="#005AA9" stroke="#005AA9"/>
<path d="M3.25 7C3.25 5.61929 4.36929 4.5 5.75 4.5H18.25C19.6307 4.5 20.75 5.61929 20.75 7V8.2499H3.25V7Z" fill="white" stroke="#005AA9"/>
<path d="M3.25 8.25H20.75" stroke="#005AA9"/>
<path d="M7 3.25L7 5.75" stroke="#005AA9" stroke-linecap="round"/>
<path d="M17 3.25L17 5.75" stroke="#005AA9" stroke-linecap="round"/>
<path d="M7.5 11.375L6.25 11.375" stroke="white" stroke-linecap="round"/>
<path d="M12.5 11.375L11.25 11.375" stroke="white" stroke-linecap="round"/>
<path d="M17.5 11.375L16.25 11.375" stroke="white" stroke-linecap="round"/>
<path d="M7.5 14.5L6.25 14.5" stroke="white" stroke-linecap="round"/>
<path d="M7.5 17.625L6.25 17.625" stroke="white" stroke-linecap="round"/>
<path d="M12.5 14.5L11.25 14.5" stroke="white" stroke-linecap="round"/>
<path d="M12.5 17.625L11.25 17.625" stroke="white" stroke-linecap="round"/>
<path d="M17.5 14.5L16.25 14.5" stroke="white" stroke-linecap="round"/>
<path d="M17.5 17.625L16.25 17.625" stroke="white" stroke-linecap="round"/>
</svg>
