<svg width="24" height="24" viewBox="0 0 24 24" id="icon" fill="none" xmlns="http://www.w3.org/2000/svg">
<path d="M12.9854 6.95788C12.9854 6.95788 7.85183 6.95788 7.23886 6.95788C6.47266 6.95788 6.47266 6.11508 6.47266 6.11508V3.89314C6.47266 3.89314 6.47266 3.12695 7.23886 3.12695C8.38817 3.12695 12.9854 3.12695 14.1347 3.12695C14.9009 3.12695 14.9009 3.89314 14.9009 3.89314V6.1917C14.9009 6.1917 14.9009 6.95788 14.1347 6.95788C13.8282 6.95788 12.9854 6.95788 12.9854 6.95788Z" stroke="#717171" stroke-miterlimit="10" stroke-linecap="round" stroke-linejoin="round"/>
<path d="M15.2316 20.7494C14.0823 20.7494 8.00594 20.7494 6.85663 20.7494C5.32422 20.7494 5.32422 19.217 5.32422 19.217V11.5551C5.32422 8.49038 7.62284 10.7889 7.62284 6.95801" stroke="#717171" stroke-miterlimit="10" stroke-linecap="round" stroke-linejoin="round"/>
<path d="M15.2844 20.7493C17.6118 20.7493 19.4986 18.8627 19.4986 16.5353C19.4986 14.208 17.6118 12.3213 15.2844 12.3213C12.957 12.3213 11.0703 14.208 11.0703 16.5353C11.0703 18.8627 12.957 20.7493 15.2844 20.7493Z" stroke="#717171" stroke-miterlimit="10" stroke-linecap="round" stroke-linejoin="round"/>
<path d="M16.0525 12.2187V11.5551C16.0525 8.49038 13.7539 10.7889 13.7539 6.95801" stroke="#717171" stroke-miterlimit="10" stroke-linecap="round" stroke-linejoin="round"/>
<path d="M13.875 17.624L16.375 15.124" stroke="#717171" stroke-width="1.25" stroke-miterlimit="10" stroke-linecap="round" stroke-linejoin="round"/>
</svg>
