<svg width="24" height="24" viewBox="0 0 24 24" fill="none" xmlns="http://www.w3.org/2000/svg">
<g clip-path="url(#clip0_3922_33397)">
<path d="M15.5002 4H22.0102C22.9342 4 23.5502 4.51884 23.5502 5.29711V19.6196C23.5502 20.3979 22.9342 20.9167 22.0102 20.9167H1.9902C1.0662 20.9167 0.450195 20.3979 0.450195 19.6196V5.29711C0.450195 4.51884 1.0662 4 1.9902 4H8.50024" stroke="#005AA9" stroke-miterlimit="10" stroke-linecap="round" stroke-linejoin="round"/>
<path d="M23.5502 18.436H0.450195" stroke="#005AA9" stroke-miterlimit="10" stroke-linecap="round" stroke-linejoin="round"/>
<path d="M15.0938 13.957C15.6507 13.957 16.1009 14.4103 16.1009 14.9676V15.545V16.1225H16.9638V15.545C16.9638 14.6702 16.2539 13.957 15.3795 13.957H15.0938Z" fill="#005AA9"/>
<path d="M14.8057 13.957V14.8232H15.3828C15.6512 14.8232 15.885 14.9705 16.0091 15.187V14.9676C16.0091 14.4103 15.5993 13.957 15.0971 13.957H14.8057Z" fill="#005AA9"/>
<path d="M16.1016 12.6577V13.2352C16.1016 14.11 16.8115 14.8232 17.6859 14.8232H17.9745C17.4175 14.8232 16.9673 14.3699 16.9673 13.8126V13.2352V12.6577H16.1016Z" fill="#005AA9"/>
<path d="M17.0538 13.8212C17.0624 14.3785 17.478 14.826 17.9802 14.8174L18.2687 14.8145L18.2572 13.9483L17.68 13.9569C17.4116 13.9598 17.1779 13.8155 17.0509 13.6018L17.0538 13.8212Z" fill="#005AA9"/>
<path d="M11.5 18L9.61035 10.2324" stroke="#005AA9" stroke-width="0.5" stroke-miterlimit="10" stroke-linecap="round" stroke-linejoin="round"/>
<path d="M12.5 17.9998L14.4586 9.88574" stroke="#005AA9" stroke-width="0.5" stroke-miterlimit="10" stroke-linecap="round" stroke-linejoin="round"/>
<path d="M9.61035 9.88574C9.61035 9.88574 10.303 11.2716 12.0345 11.2716C13.766 11.2716 14.4586 9.88574 14.4586 9.88574" stroke="#005AA9" stroke-width="0.5" stroke-miterlimit="10" stroke-linecap="round" stroke-linejoin="round"/>
<path d="M8.91797 5.72825C9.26427 5.72825 9.61057 5.03532 9.61057 4.68885C9.61057 3.64945 10.6495 3.30298 10.6495 3.30298C10.6495 3.30298 11.6884 4.34238 13.4199 4.34238C14.8051 4.34238 14.4588 5.72825 15.1514 5.72825" stroke="#005AA9" stroke-width="0.5" stroke-miterlimit="10" stroke-linecap="round" stroke-linejoin="round"/>
<path d="M20.0001 18C20.0001 18 20.2767 13.0041 18.8915 11.9647C17.9218 11.2024 14.3896 9.88587 14.3896 9.88587L14.1125 8.84647C14.3203 8.5 14.4588 8.15353 14.5973 7.52989C14.8051 7.52989 15.0822 7.18342 15.2207 6.69837C15.3592 6.14402 15.3592 5.72826 15.1514 5.65897C15.1514 5.65897 15.3592 4.96603 15.2899 3.85734C15.2899 1.84783 13.974 0.53125 11.9655 0.53125C9.95693 0.53125 10.0262 1.43207 9.54137 1.84783C9.47211 1.91712 9.19507 2.19429 9.19507 2.19429L9.05655 2.47147L8.91803 2.67935C8.91803 2.67935 8.84877 2.88723 8.77951 3.2337C8.57173 4.68886 8.91803 5.65897 8.91803 5.65897C8.71025 5.72826 8.71025 6.21332 8.84877 6.69837C8.98729 7.18342 9.26433 7.52989 9.47211 7.52989C9.61063 8.15353 9.74915 8.5 9.95693 8.84647L9.61063 9.88587C9.61063 9.88587 6.14763 11.2024 5.10873 11.9647C3.72352 13.0041 4.00021 18 4.00021 18" stroke="#005AA9" stroke-miterlimit="10" stroke-linecap="round" stroke-linejoin="round"/>
<path d="M12 20.9167V23.2953" stroke="#005AA9" stroke-miterlimit="10" stroke-linecap="round" stroke-linejoin="round"/>
<path d="M18 23.5H6" stroke="#005AA9" stroke-linecap="round" stroke-linejoin="round"/>
</g>
<defs>
<clipPath id="clip0_3922_33397">
<rect width="24" height="24" fill="white"/>
</clipPath>
</defs>
</svg>
