<svg width="16" height="16" viewBox="0 0 16 16" fill="none" xmlns="http://www.w3.org/2000/svg">
<g clip-path="url(#clip0_3922_33595)">
<path d="M2.66699 14.6665V2.6665C2.66699 2.11422 3.11471 1.6665 3.66699 1.6665H9.51881C9.81742 1.6665 10.1004 1.79995 10.2904 2.03034L13.1052 5.44429C13.2529 5.6234 13.3337 5.84831 13.3337 6.08045V14.6665C13.3337 15.2188 12.8859 15.6665 12.3337 15.6665H3.66699C3.11471 15.6665 2.66699 15.2188 2.66699 14.6665Z" stroke="#005AA9" stroke-linejoin="round"/>
<path d="M5.66699 13.0002H10.667M5.66699 10.3335H10.667" stroke="#005AA9" stroke-linecap="round" stroke-linejoin="round"/>
<path d="M4.66699 4.10161V6.66683C4.66699 7.21911 5.11471 7.66683 5.66699 7.66683V7.66683C6.21928 7.66683 6.66699 7.21911 6.66699 6.66683V1.3335C6.66699 0.781212 6.21928 0.333496 5.66699 0.333496V0.333496C5.11471 0.333496 4.66699 0.781211 4.66699 1.3335V1.66683" stroke="#005AA9" stroke-linecap="round" stroke-linejoin="round"/>
</g>
<defs>
<clipPath id="clip0_3922_33595">
<rect width="16" height="16" fill="white"/>
</clipPath>
</defs>
</svg>
