<svg width="24" height="24" viewBox="0 0 24 24" fill="none" xmlns="http://www.w3.org/2000/svg">
<path d="M20.2013 16.3775V11.6294C20.2013 7.83087 17.6689 4.66543 14.0287 3.87408V3.55753C14.0287 2.44963 13.079 1.5 11.9711 1.5C10.8632 1.5 9.91359 2.44963 9.91359 3.55753V3.87408C6.58988 4.82371 4.05753 7.83087 4.05753 11.6294V16.3775C2.94963 16.3775 2 17.3272 2 18.4351C2 19.543 2.94963 20.4926 4.05753 20.4926H20.2013C21.3092 20.4926 22.2588 19.543 22.2588 18.4351C22.2588 17.3272 21.3092 16.3775 20.2013 16.3775Z" stroke="#0253B1" stroke-miterlimit="10"/>
<path d="M15.1358 20.4929C15.1358 22.2339 13.7114 23.5001 12.1287 23.5001C10.546 23.5001 9.12152 22.0756 9.12152 20.4929" stroke="#0253B1" stroke-miterlimit="10"/>
</svg>
