<svg width="305" height="240" viewBox="0 0 305 240" fill="none" xmlns="http://www.w3.org/2000/svg">
<rect width="305" height="240" fill="#F5F5F5"/>
<rect width="305" height="240" fill="white"/>
<g clip-path="url(#clip0_0_1)">
<path d="M237.14 206.42C237.14 206.42 222.18 218.21 198.58 225.02C185.84 228.69 173 229.91 153.62 229.03C118.88 227.44 95.69 226.38 71.88 214.23C41.86 198.91 -1.15003 159.87 7.00996 116.15C10.66 96.63 25.11 72.97 47.17 65.96C79.36 55.72 101.85 89.17 128.21 77.13C149.08 67.59 141.62 43.59 165.32 26.58C188.45 9.97 225.97 11 252.58 28.12C294.16 54.88 290.33 108.88 289.64 118.65C289.24 124.26 288.29 148.35 271.38 171.96C263.24 183.33 252.05 194.89 237.14 206.42Z" fill="#E1F0FA"/>
<path d="M76.13 79.21C42.64 56.96 35.23 78.84 45.33 89.27C50.58 94.7 75.85 110.21 90.25 127.86C117.7 161.5 117.47 200.81 116.52 213.68L117.52 213.6C123.11 194.99 140.07 121.7 76.13 79.21Z" fill="#BDD7F0"/>
<path d="M76.1299 79.21C54.0199 64.52 43.2799 69.06 41.4399 76.85C43.1099 75.37 45.2999 73.84 47.9799 72.91C51.8799 71.56 55.2299 72.01 58.5099 72.91C66.8999 75.2 74.2099 80.23 82.7699 88.22C88.7799 93.84 93.2999 98.06 98.3899 105.08C107.88 118.17 113.2 132.51 115.44 141.99C118.84 156.4 117.89 171.33 115.17 184.76C117.21 197.61 116.93 208.11 116.52 213.68L117.75 213.58C123.03 198.1 138.62 120.73 76.1299 79.21Z" fill="#BDD7F0"/>
<path d="M119.48 187.19C119.22 176.82 117.56 160.85 111.07 143.7C106.39 131.34 99.51 119.66 91.15 109.92C84.62 102.31 77.16 95.8 68.96 90.58C68.76 90.45 68.49 90.55 68.36 90.8C68.23 91.04 68.28 91.34 68.48 91.47C76.62 96.66 84.03 103.12 90.51 110.67C98.8 120.34 105.64 131.93 110.28 144.2C116.72 161.22 118.37 177.06 118.62 187.35C118.7 190.65 118.66 194 118.51 197.32C118.5 197.59 118.68 197.8 118.91 197.78C119.15 197.76 119.35 197.53 119.36 197.25C119.52 193.9 119.56 190.52 119.47 187.19H119.48Z" fill="#BDD7F0"/>
<path d="M100.39 27.57C88.44 29.86 89.01 50.98 89.11 53.44C89.87 73.06 103.43 91.3 108.96 95.16L110.86 93.62C109.02 87.96 100.69 72.54 104.8 54.95C107.6 42.93 115.1 34.66 110.38 29.89C107.95 27.44 103.37 27 100.39 27.57Z" fill="#BDD7F0"/>
<path d="M89.1 53.44C89.86 73.06 103.42 91.3 108.95 95.16L110.85 93.62C110.26 91.79 108.99 88.95 107.68 85.35C106.19 83.91 104.71 82.34 103.27 80.62C93.72 69.19 91.92 58.34 91.6 56.2C90.94 51.79 89.51 42.27 95.47 33.66C97.34 30.95 99.54 28.92 101.58 27.41C101.16 27.45 100.76 27.5 100.38 27.58C88.43 29.87 89 50.99 89.1 53.45V53.44Z" fill="#BDD7F0"/>
<path d="M100.92 38.91C98.56 43.95 97.15 49.36 96.75 54.98C95.89 66.8 99.64 77.12 103.01 83.8C103.09 83.96 103.3 84.06 103.47 84.01C103.64 83.96 103.71 83.79 103.63 83.62C100.3 77.02 96.6 66.8 97.44 55.11C97.84 49.55 99.23 44.21 101.57 39.22C101.64 39.07 101.55 38.88 101.38 38.8C101.2 38.84 101.1 38.87 100.93 38.91H100.92Z" fill="#BDD7F0"/>
<path fill-rule="evenodd" clip-rule="evenodd" d="M243.94 217.03H243.96L244.03 216.98C244.1 216.94 244.2 216.88 244.33 216.8C244.6 216.64 245 216.4 245.52 216.08C246.56 215.44 248.07 214.48 249.9 213.22C253.58 210.71 258.56 207.06 263.79 202.46C274.33 193.18 285.42 180.44 289.17 165.93C289.64 164.13 291.48 163.04 293.28 163.51C295.08 163.98 296.17 165.82 295.7 167.62C291.44 184.11 279.11 197.96 268.24 207.52C262.76 212.34 257.54 216.17 253.69 218.79C251.76 220.1 250.18 221.12 249.06 221.81C248.5 222.15 248.06 222.42 247.76 222.6C247.61 222.69 247.49 222.76 247.41 222.81L247.31 222.87L247.28 222.89H247.27C247.27 222.89 247.27 222.89 245.6 219.97L247.27 222.9C245.65 223.82 243.59 223.26 242.67 221.65C241.75 220.03 242.31 217.97 243.92 217.05L243.94 217.03Z" fill="#E6F3FB"/>
<path d="M154.04 43.15C162.689 43.15 169.7 36.1388 169.7 27.49C169.7 18.8412 162.689 11.83 154.04 11.83C145.391 11.83 138.38 18.8412 138.38 27.49C138.38 36.1388 145.391 43.15 154.04 43.15Z" fill="#EFF7FD"/>
<path d="M73.76 54.33C74.01 56.36 72.38 58.26 69.77 58.34C67.74 58.4 65.89 56.39 65.89 54.33C65.89 52.19 67.55 50.53 69.71 50.52C72.21 50.51 73.71 51.88 73.75 54.34L73.76 54.33Z" fill="#E6F3FB"/>
<path d="M32.03 50.57C32.56 54.9 29.08 58.94 23.54 59.11C19.21 59.24 15.29 54.96 15.28 50.57C15.28 46 18.81 42.47 23.42 42.45C28.75 42.42 31.93 45.34 32.03 50.57Z" fill="#E6F3FB"/>
<path d="M82.46 160.98C83.31 159.89 84.44 159.68 85.48 160.17C86.12 160.47 86.73 161.28 86.93 161.98C87.27 163.15 86.58 164.28 85.56 164.73C84.52 165.19 83.56 165.05 82.74 164.21C81.86 163.32 81.77 162.41 82.45 160.98H82.46Z" fill="#E6F3FB"/>
<path d="M256.99 22.41C256.78 22.83 256.5 23.31 256.15 23.75C256.35 23.3 256.64 22.88 256.99 22.41Z" fill="#0B5694"/>
<path d="M260.34 17.66C260.13 18.09 259.85 18.55 259.48 19.01C259.69 18.56 259.98 18.14 260.34 17.66Z" fill="#0B5694"/>
<path d="M258.48 20.31C258.33 20.65 258.12 21.03 257.82 21.38C257.96 21.02 258.19 20.69 258.48 20.31Z" fill="#0B5694"/>
<path d="M258.96 19.6C258.91 19.79 258.8 20.01 258.6 20.26C258.65 20.07 258.77 19.85 258.96 19.6Z" fill="#0B5694"/>
<path d="M257.65 21.45C257.64 21.58 257.58 21.76 257.44 21.95C257.44 21.8 257.52 21.65 257.65 21.45Z" fill="#0B5694"/>
<path d="M259.33 19.07C259.32 19.2 259.25 19.38 259.11 19.57C259.11 19.42 259.2 19.27 259.33 19.07Z" fill="#0B5694"/>
<path d="M255.98 23.83C255.97 23.96 255.91 24.15 255.76 24.33C255.76 24.18 255.84 24.03 255.98 23.83Z" fill="#0B5694"/>
<path d="M257.3 21.98C257.3 22.09 257.25 22.23 257.12 22.38C257.11 22.27 257.17 22.14 257.3 21.98Z" fill="#0B5694"/>
<path d="M115.56 169.58C115.79 169.84 116.01 170.2 116.25 170.63C116.03 170.36 115.79 170.02 115.56 169.58Z" fill="#0459AB"/>
<path d="M117.23 172.42C117.39 172.53 117.54 172.73 117.71 173C117.56 172.89 117.39 172.7 117.23 172.42Z" fill="#0459AB"/>
<path d="M116.51 171.24C116.66 171.35 116.81 171.55 116.97 171.82C116.83 171.71 116.67 171.52 116.51 171.24Z" fill="#0459AB"/>
<path d="M116.99 171.96C117.07 172 117.15 172.11 117.24 172.29C117.17 172.25 117.08 172.14 116.99 171.96Z" fill="#0459AB"/>
<path d="M116.27 170.77C116.34 170.81 116.42 170.92 116.51 171.11C116.44 171.07 116.36 170.96 116.27 170.77Z" fill="#0459AB"/>
<path d="M115.33 169.09C115.41 169.13 115.49 169.25 115.58 169.44C115.51 169.4 115.42 169.28 115.33 169.09Z" fill="#0459AB"/>
<path d="M115.09 168.62C115.16 168.66 115.24 168.78 115.33 168.97C115.26 168.93 115.18 168.81 115.09 168.62Z" fill="#0459AB"/>
<path d="M114.85 168.14C114.92 168.18 115 168.3 115.09 168.49C115.02 168.45 114.94 168.33 114.85 168.14Z" fill="#0459AB"/>
<path d="M114.61 167.66C114.68 167.7 114.76 167.82 114.85 168.01C114.78 167.97 114.7 167.85 114.61 167.66Z" fill="#0459AB"/>
<path d="M114.38 167.18C114.46 167.22 114.53 167.34 114.62 167.53C114.55 167.49 114.46 167.37 114.38 167.18Z" fill="#0459AB"/>
<path fill-rule="evenodd" clip-rule="evenodd" d="M26.8301 191.2H26.8401L26.8901 191.27C26.9301 191.32 27.0001 191.41 27.0901 191.52C27.2701 191.74 27.5401 192.07 27.9001 192.5C28.6101 193.35 29.6801 194.58 31.0401 196.06C33.7701 199.03 37.7101 203.03 42.5201 207.12C52.2401 215.37 65.1301 223.65 78.6601 225.12C80.3401 225.3 81.5501 226.81 81.3701 228.49C81.1901 230.17 79.6801 231.38 78.0001 231.2C62.6301 229.54 48.5701 220.29 38.5601 211.78C33.5101 207.49 29.3901 203.31 26.5301 200.2C25.1001 198.64 23.9801 197.35 23.2101 196.44C22.8301 195.99 22.5301 195.63 22.3301 195.38C22.2301 195.26 22.1501 195.16 22.1001 195.09L22.0401 195.01L22.0201 194.99C22.0201 194.99 22.0201 194.98 24.4301 193.09L22.0201 194.98C20.9801 193.65 21.2101 191.73 22.5401 190.68C23.8701 189.64 25.7901 189.87 26.8301 191.2Z" fill="#E6F3FB"/>
<path d="M252.69 145.24C260.427 145.24 266.7 138.968 266.7 131.23C266.7 123.492 260.427 117.22 252.69 117.22C244.952 117.22 238.68 123.492 238.68 131.23C238.68 138.968 244.952 145.24 252.69 145.24Z" fill="#EFF7FD"/>
<path d="M252.69 142.69C259.019 142.69 264.15 137.559 264.15 131.23C264.15 124.901 259.019 119.77 252.69 119.77C246.361 119.77 241.23 124.901 241.23 131.23C241.23 137.559 246.361 142.69 252.69 142.69Z" fill="#E6F3FB"/>
<path fill-rule="evenodd" clip-rule="evenodd" d="M186.56 156.06C186.6 149.16 175.35 139.28 165 139.15C154.65 139.02 144.59 146.57 142.93 154.21C145.24 149.07 155.65 140.78 165.16 140.9C174.67 141.02 185.32 150.56 186.56 156.06Z" fill="white" fill-opacity="0.34"/>
<path d="M58.56 46.23H57.17C52.09 45.77 48.76 43.92 45.71 39.94L45.89 39.76C48.94 43.74 52.18 45.49 57.17 45.95C62.44 46.41 67.71 44.1 70.57 40.03C73.43 35.96 73.9 31.25 71.86 26.72H72.14C74.27 31.25 73.8 36.06 70.85 40.12C68.17 43.91 63.45 46.22 58.56 46.22V46.23Z" fill="url(#paint0_linear_0_1)"/>
<path d="M58.5599 46.23V45.58H57.1699C54.7699 45.4 52.7299 44.84 50.9799 43.82C49.2199 42.9 47.7399 41.51 46.1699 39.57L45.6199 39.94L46.0799 40.4L46.2599 40.22L45.7999 39.76L45.2499 40.13C46.8199 42.16 48.4899 43.64 50.3299 44.75C52.2699 45.77 54.3999 46.41 56.9899 46.6H58.3799C63.3699 46.6 68.1799 44.29 70.9499 40.31C72.7099 37.81 73.6299 35.04 73.6299 32.27C73.6299 30.33 73.1699 28.29 72.3399 26.35L71.7899 26.63V27.28H72.0699V26.63L71.5199 26.91C72.3499 28.67 72.8099 30.52 72.8099 32.36C72.8099 34.95 71.9799 37.44 70.3099 39.66C67.8099 43.27 63.2799 45.48 58.5699 45.48V46.77C63.6499 46.77 68.5499 44.37 71.4199 40.39C73.2699 37.89 74.1899 35.12 74.1899 32.25C74.1899 30.22 73.7299 28.27 72.7999 26.24L72.6199 25.87H70.9599L71.3299 26.79C72.1599 28.55 72.5299 30.4 72.5299 32.15C72.5299 34.65 71.6999 37.14 70.1299 39.45C67.6299 42.96 63.1999 45.18 58.5699 45.18H57.2799C54.8799 45 52.8399 44.44 51.1799 43.52C49.4199 42.6 47.9399 41.21 46.4699 39.27L46.0099 38.72L44.8999 39.83L45.2699 40.29C46.8399 42.32 48.5099 43.9 50.4499 44.91C52.3899 46.02 54.6099 46.57 57.1999 46.85H58.5899V46.2L58.5599 46.23Z" fill="#0F65B2"/>
<path d="M75.1999 62.41C70.2099 50.3 65.3099 40.96 59.0199 30.98H59.1999C65.4899 40.87 70.3899 50.21 75.3799 62.32H75.0999H75.1899V62.41H75.1999Z" fill="url(#paint1_linear_0_1)"/>
<path d="M75.1999 62.41L75.7499 62.13C70.7599 50.02 65.8599 40.59 59.4799 30.61L58.9299 30.98V31.63H59.1099V30.98L58.5599 31.35C64.8499 41.24 69.7499 50.49 74.6499 62.6L75.1999 62.32V61.67H73.3499L76.8599 65.18L75.6599 62.22L75.1099 62.5L75.5699 62.04H75.4799L75.0199 62.41V63.06H76.2199L75.8499 62.14C70.8599 50.03 65.9599 40.6 59.5799 30.71L59.3999 30.43H57.6399L58.2899 31.45C64.5799 41.43 69.4799 50.68 74.3799 62.79L74.9299 62.51L75.2099 62.42L75.1999 62.41Z" fill="#0F65B2"/>
<path d="M65.86 44.11C59.02 44.11 54.21 41.43 51.25 35.97H51.43C54.48 41.42 59.38 44.01 66.5 43.83C68.9 39.02 68.72 33.85 65.95 28.3H66.13C69 33.85 69.09 39.21 66.59 44.02H65.85V44.11H65.86Z" fill="url(#paint2_linear_0_1)"/>
<path d="M65.86 44.11V43.46C62.53 43.46 59.76 42.81 57.45 41.52C55.14 40.23 53.29 38.28 51.81 35.7L51.26 35.98V36.63H51.44V35.98L50.89 36.26C52.37 38.94 54.4 41.07 56.9 42.45C59.4 43.83 62.35 44.48 65.77 44.48H66.88L67.06 44.11C68.26 41.8 68.82 39.4 68.82 36.9C68.82 34.03 68.08 31.08 66.51 28.03L65.96 28.31V28.96H66.14V28.31L65.59 28.59C67.07 31.46 67.81 34.23 67.81 36.82C67.81 39.22 67.26 41.53 66.05 43.66L66.6 43.94V43.29H65.21V44.03H65.86V44.68H66.97L67.15 44.31C68.35 41.91 69 39.41 69 36.82C69 33.95 68.26 31 66.69 27.95L66.51 27.58H64.85L65.31 28.5C66.79 31.37 67.44 34.14 67.44 36.82C67.44 39.13 66.89 41.35 65.87 43.48L66.42 43.76V43.11H65.68C62.35 43.11 59.67 42.46 57.36 41.26C55.05 40.06 53.29 38.12 51.81 35.62L51.63 35.25H49.97L50.52 36.17C52.09 38.94 54.13 41.16 56.62 42.55C59.12 43.94 62.17 44.68 65.68 44.68H66.33V44.03H65.68L65.86 44.12V44.11Z" fill="#0F65B2"/>
<path d="M72.9799 25.06C72.9799 26.08 72.0599 26.91 71.0399 26.91C70.0199 26.91 69.1899 25.99 69.1899 24.97C69.1899 23.95 70.1099 23.12 71.1299 23.12C72.1499 23.12 72.9799 24.04 72.9799 25.06Z" fill="white"/>
<path d="M72.9799 25.06H72.3299C72.3299 25.34 72.1499 25.71 71.9599 25.89C71.6799 26.07 71.4099 26.26 71.0399 26.26C70.7599 26.26 70.3899 26.08 70.2099 25.89C70.0299 25.61 69.8399 25.34 69.8399 24.97C69.8399 24.69 70.0199 24.32 70.2099 24.14C70.4899 23.96 70.7599 23.77 71.1299 23.77C71.4099 23.77 71.7799 23.95 71.9599 24.14C72.1399 24.42 72.3299 24.69 72.3299 25.06H73.6199C73.6199 24.41 73.3399 23.77 72.8799 23.3C72.4199 22.83 71.7699 22.47 71.1199 22.47C70.4699 22.47 69.8299 22.75 69.3599 23.21C68.8899 23.67 68.5299 24.32 68.5299 24.97C68.5299 25.62 68.8099 26.26 69.2699 26.73C69.7299 27.2 70.3799 27.56 71.0299 27.56C71.6799 27.56 72.3199 27.28 72.7899 26.82C73.2599 26.36 73.6199 25.71 73.6199 25.06H72.9699H72.9799Z" fill="#0F65B2"/>
<path d="M65.21 28.39C66.2317 28.39 67.06 27.5617 67.06 26.54C67.06 25.5183 66.2317 24.69 65.21 24.69C64.1883 24.69 63.36 25.5183 63.36 26.54C63.36 27.5617 64.1883 28.39 65.21 28.39Z" fill="white"/>
<path d="M65.21 24.69V25.34C65.86 25.34 66.41 25.89 66.41 26.54C66.41 27.19 65.86 27.74 65.21 27.74C64.56 27.74 64.01 27.19 64.01 26.54C64.01 25.89 64.56 25.34 65.21 25.34V24.05C63.82 24.05 62.71 25.16 62.71 26.55C62.71 27.94 63.82 29.05 65.21 29.05C66.6 29.05 67.71 27.94 67.71 26.55C67.71 25.16 66.6 24.05 65.21 24.05V24.7V24.69Z" fill="#0F65B2"/>
<path d="M58.09 30.42C57.44 30.42 56.89 29.87 56.89 29.22C56.89 28.57 57.44 28.02 58.09 28.02V26.73C56.7 26.73 55.59 27.84 55.59 29.23C55.59 30.62 56.7 31.73 58.09 31.73C59.48 31.73 60.59 30.62 60.59 29.23C60.59 27.84 59.48 26.73 58.09 26.73V28.02" fill="#0F65B2"/>
<path d="M50.5099 36.06C51.5316 36.06 52.3599 35.2317 52.3599 34.21C52.3599 33.1883 51.5316 32.36 50.5099 32.36C49.4882 32.36 48.6599 33.1883 48.6599 34.21C48.6599 35.2317 49.4882 36.06 50.5099 36.06Z" fill="white"/>
<path d="M50.5099 32.37V33.02C51.1599 33.02 51.7099 33.57 51.7099 34.22C51.7099 34.87 51.1599 35.42 50.5099 35.42C49.8599 35.42 49.3099 34.87 49.3099 34.22C49.3099 33.57 49.8599 33.02 50.5099 33.02V31.73C49.1199 31.73 48.0099 32.84 48.0099 34.23C48.0099 35.62 49.1199 36.73 50.5099 36.73C51.8999 36.73 53.0099 35.62 53.0099 34.23C53.0099 32.84 51.8999 31.73 50.5099 31.73V32.38V32.37Z" fill="#0F65B2"/>
<path d="M44.69 40.13C45.7117 40.13 46.54 39.3017 46.54 38.28C46.54 37.2583 45.7117 36.43 44.69 36.43C43.6682 36.43 42.84 37.2583 42.84 38.28C42.84 39.3017 43.6682 40.13 44.69 40.13Z" fill="white"/>
<path d="M44.6899 36.43V37.08C45.3399 37.08 45.8899 37.63 45.8899 38.28C45.8899 38.93 45.3399 39.48 44.6899 39.48C44.0399 39.48 43.4899 38.93 43.4899 38.28C43.4899 37.63 44.0399 37.08 44.6899 37.08V35.79C43.2999 35.79 42.1899 36.9 42.1899 38.29C42.1899 39.68 43.2999 40.79 44.6899 40.79C46.0799 40.79 47.1899 39.68 47.1899 38.29C47.1899 36.9 46.0799 35.79 44.6899 35.79V36.44V36.43Z" fill="#0F65B2"/>
<path d="M269.7 119.22C265.5 125.9 261.54 132.83 257.93 139.83C248.24 158.62 240.68 178.6 235.38 199.4C237.29 198.32 238.92 197.46 240.7 196.24C245.84 177.43 252.89 158.87 261.71 141.78C265.26 134.89 269.16 128.06 273.3 121.48L269.7 119.22Z" fill="#BDD7F0"/>
<path d="M268.72 112.08C271.55 110.98 270.9 103.57 270.84 102.86C270.17 95.26 264.98 87.27 261.45 87.89C258.67 88.38 256.93 94.21 257.37 98.77C258.12 106.61 265.56 113.31 268.72 112.08Z" fill="#BDD7F0"/>
<path d="M273.87 119.23C271.77 121.42 275.48 127.87 275.83 128.48C279.64 135.09 287.71 140.15 290.65 138.1C292.97 136.49 292.08 130.47 289.77 126.52C285.79 119.72 276.22 116.78 273.87 119.23Z" fill="#BDD7F0"/>
<path d="M287.98 95.03C286.66 93.91 283.34 95.84 281.91 96.67C273.83 101.36 268.52 111.47 270.61 113.61C272.32 115.37 279.38 112.13 283.56 107.47C287.44 103.13 289.76 96.54 287.98 95.04V95.03Z" fill="#BDD7F0"/>
<path d="M266.69 119.98C265.37 118.86 262.05 120.79 260.62 121.62C252.54 126.31 247.23 136.42 249.32 138.56C251.03 140.32 258.09 137.08 262.27 132.42C266.15 128.08 268.47 121.49 266.69 119.99V119.98Z" fill="#BDD7F0"/>
<path d="M264.25 114.62C265.2 112.29 260.78 108.43 258.53 106.84C253.24 103.1 245.23 101.55 243.54 104.16C242.15 106.3 245.07 111.19 248.54 113.77C254.22 118 263.11 117.41 264.25 114.62Z" fill="#BDD7F0"/>
<path d="M274.7 115.88C274.51 113.39 280.8 110.87 284.86 109.97C291.06 108.59 299.14 109.42 299.77 112.14C300.34 114.59 294.85 118.55 289.54 119.74C282.76 121.27 274.9 118.59 274.69 115.88H274.7Z" fill="#BDD7F0"/>
<path d="M272.21 122.29C274.67 122.75 275.49 129.47 275.33 133.62C275.08 139.97 272.21 147.57 269.42 147.48C266.9 147.4 264.48 141.08 264.69 135.65C264.95 128.7 269.54 121.79 272.22 122.28L272.21 122.29Z" fill="#BDD7F0"/>
<path d="M264.11 116.8C263.97 116.55 263.64 116.33 254.9 117.84C248.21 119 244.69 119.77 241.66 122.53C240.74 123.37 239.75 124.3 239.96 125.19C240.41 127.11 246.2 127.88 250.75 127.02C258.76 125.5 265.05 118.52 264.11 116.79V116.8Z" fill="#BDD7F0"/>
<path d="M277.172 119.236C277.55 114.214 273.784 109.836 268.761 109.458C263.739 109.08 259.361 112.846 258.983 117.869C258.606 122.891 262.371 127.269 267.394 127.647C272.417 128.024 276.794 124.259 277.172 119.236Z" fill="#BDD7F0"/>
<path d="M277.12 117.38C276.46 119.59 274.96 121.56 272.78 122.76C268.37 125.19 262.82 123.58 260.39 119.17C259.82 118.14 259.48 117.05 259.34 115.95C258.67 118.21 258.86 120.73 260.09 122.96C262.52 127.37 268.07 128.98 272.48 126.55C275.86 124.69 277.6 120.99 277.13 117.38H277.12Z" fill="#BDD7F0"/>
<path d="M279.43 54.95C280.098 54.95 280.64 54.4083 280.64 53.74C280.64 53.0717 280.098 52.53 279.43 52.53C278.762 52.53 278.22 53.0717 278.22 53.74C278.22 54.4083 278.762 54.95 279.43 54.95Z" fill="#E6F3FB" stroke="#E6F3FB" stroke-miterlimit="10"/>
<path d="M277.91 52.25C278.36 51.76 278.33 51 277.83 50.55C277.34 50.1 276.58 50.13 276.13 50.63C275.68 51.12 275.71 51.88 276.21 52.33C276.71 52.78 277.46 52.75 277.91 52.25Z" fill="#E6F3FB" stroke="#E6F3FB" stroke-miterlimit="10"/>
<path d="M274.06 49.94C274.728 49.94 275.27 49.3983 275.27 48.73C275.27 48.0617 274.728 47.52 274.06 47.52C273.392 47.52 272.85 48.0617 272.85 48.73C272.85 49.3983 273.392 49.94 274.06 49.94Z" fill="#E6F3FB" stroke="#E6F3FB" stroke-miterlimit="10"/>
<path d="M270.9 47.05C271.568 47.05 272.11 46.5083 272.11 45.84C272.11 45.1717 271.568 44.63 270.9 44.63C270.232 44.63 269.69 45.1717 269.69 45.84C269.69 46.5083 270.232 47.05 270.9 47.05Z" fill="#E6F3FB" stroke="#E6F3FB" stroke-miterlimit="10"/>
<path d="M268.71 44.39C269.16 43.9 269.13 43.14 268.63 42.69C268.14 42.24 267.38 42.27 266.93 42.77C266.48 43.26 266.51 44.02 267.01 44.47C267.5 44.92 268.26 44.89 268.71 44.39Z" fill="#E6F3FB" stroke="#E6F3FB" stroke-miterlimit="10"/>
<path d="M268 43.73C267.67 44.31 266.07 47.37 267.38 50.79C267.5 51.1 267.87 51.98 268.57 52.91C268.37 51.66 268.34 50.07 268.94 48.45C269.32 47.42 269.91 46.51 270.69 45.74L271.03 46.08C270.3 46.8 269.75 47.65 269.39 48.61C268.67 50.53 268.9 52.42 269.22 53.67C269.34 53.8 269.48 53.93 269.61 54.05C270.09 53.69 270.86 53.02 271.73 51.96C272.86 50.57 273.53 49.3 273.82 48.66L274.26 48.86C273.96 49.52 273.27 50.83 272.11 52.26C271.26 53.3 270.5 53.98 269.99 54.37C270.12 54.47 270.25 54.56 270.38 54.66C271.14 54.8 272.54 54.89 273.97 54.21C275.63 53.42 276.41 52.05 276.73 51.3L277.17 51.49C276.82 52.3 275.97 53.79 274.17 54.65C273.18 55.12 272.2 55.25 271.41 55.24C271.89 55.45 272.42 55.61 273 55.71C274.46 55.94 275.91 55.69 277.32 54.96C278.38 54.41 279.06 53.77 279.25 53.59L279.59 53.93C279.39 54.13 278.67 54.81 277.55 55.39C276.04 56.17 274.49 56.44 272.93 56.19C271.7 55.99 270.7 55.51 269.88 54.91C268.79 57.21 267.41 59.36 265.77 61.29C264.83 62.39 262.89 64.69 259.57 66.76C257.4 68.12 255.03 69.13 252.53 69.77L252.34 69.02C254.76 68.4 257.06 67.41 259.16 66.1C262.38 64.09 264.27 61.86 265.18 60.79C266.81 58.86 268.19 56.72 269.26 54.41C269.26 54.41 269.25 54.41 269.24 54.4C267.79 53.07 267.09 51.45 266.91 50.98C265.52 47.36 267.21 44.12 267.56 43.51L267.98 43.75L268 43.73Z" fill="#E6F3FB" stroke="#E6F3FB" stroke-miterlimit="10"/>
<path d="M60.73 176.34C71.47 179.56 79.57 191.06 77.01 199.17C73.33 210.83 55.71 208.95 45.57 197.48C40.56 191.82 41.08 189.99 37.48 186.1C33.24 181.52 30.9 181.43 31.02 179.91C31.35 175.98 46.9 172.19 60.73 176.34Z" fill="#BDD7F0"/>
<path d="M40.43 178.13C40.91 178.3 41.61 178.56 42.5 178.89C44.27 179.56 46.79 180.59 49.73 181.99C51.2 182.69 52.78 183.48 54.42 184.37C54.83 184.59 55.25 184.82 55.67 185.05C56.09 185.29 56.51 185.53 56.94 185.78C57.78 186.29 58.63 186.8 59.5 187.33C59.72 187.46 59.94 187.59 60.15 187.73C60.37 187.87 60.58 188.01 60.8 188.15C61.23 188.44 61.67 188.72 62.11 189.01C62.55 189.3 62.99 189.59 63.44 189.89C63.87 190.2 64.31 190.51 64.74 190.82C65.61 191.45 66.5 192.06 67.35 192.74C67.78 193.07 68.21 193.4 68.64 193.74C69.07 194.07 69.5 194.4 69.92 194.76C70.76 195.46 71.61 196.14 72.44 196.84C73.26 197.56 74.07 198.27 74.88 198.98C75.67 199.71 76.45 200.44 77.22 201.16C77.97 201.9 78.69 202.65 79.41 203.38C80.1 204.13 80.78 204.88 81.43 205.62C82.08 206.36 82.69 207.11 83.28 207.84C83.58 208.2 93.55 219.75 94.91 220.99C95.17 221.23 95.33 222.07 95.84 222.98C93.19 221.4 91.88 220.64 90.81 219.81C90.79 219.79 90.14 219.11 90.13 219.1C89.84 218.73 89.52 218.31 89.17 217.86C88.82 217.41 88.43 216.93 88.03 216.41C87.82 216.15 87.62 215.88 87.4 215.61C87.18 215.34 86.95 215.06 86.72 214.77C86.26 214.2 85.77 213.6 85.25 212.98C84.73 212.36 84.21 211.71 83.63 211.06C83.35 210.73 83.06 210.4 82.77 210.06C82.48 209.72 82.19 209.37 81.87 209.03C81.56 208.69 81.25 208.34 80.93 207.99C80.61 207.64 80.31 207.27 79.97 206.92C79.3 206.22 78.65 205.48 77.96 204.75C77.27 204.02 76.56 203.28 75.86 202.53C75.13 201.79 74.4 201.05 73.66 200.29C72.9 199.55 72.13 198.82 71.35 198.08C70.57 197.35 69.75 196.65 68.95 195.93C68.55 195.57 68.14 195.23 67.72 194.89C67.3 194.55 66.89 194.21 66.48 193.87C65.66 193.18 64.8 192.55 63.96 191.9C63.54 191.58 63.12 191.26 62.7 190.94C62.27 190.64 61.85 190.34 61.43 190.04C61.01 189.74 60.59 189.44 60.17 189.15C59.96 189 59.76 188.85 59.55 188.71C59.34 188.57 59.12 188.43 58.91 188.29C58.06 187.73 57.23 187.19 56.41 186.65C55.6 186.14 54.78 185.64 53.99 185.17C52.4 184.22 50.87 183.37 49.44 182.61C48.01 181.85 46.68 181.19 45.49 180.63C44.3 180.06 43.25 179.6 42.39 179.21C41.52 178.83 40.84 178.54 40.37 178.35C39.9 178.16 39.65 178.05 39.65 178.05L39.72 177.87C39.72 177.87 39.98 177.96 40.45 178.13H40.43Z" fill="#BDD7F0"/>
<path d="M67.9401 154.26C71.6001 160.07 75.0401 166.11 78.1901 172.2C86.6301 188.56 93.2101 205.95 97.8201 224.06C96.1601 223.12 94.7301 222.37 93.1901 221.31C88.7201 204.93 82.5801 188.78 74.9001 173.89C71.8101 167.89 68.4101 161.95 64.8101 156.22L67.9401 154.25V154.26Z" fill="#BDD7F0"/>
<path d="M68.7901 148.05C66.3301 147.09 66.8901 140.64 66.9501 140.02C67.5301 133.4 72.0501 126.45 75.1201 126.99C77.5401 127.42 79.0501 132.49 78.6701 136.46C78.0201 143.29 71.5401 149.12 68.7901 148.05Z" fill="#BDD7F0"/>
<path d="M64.31 154.27C66.14 156.18 62.91 161.79 62.6 162.33C59.28 168.09 52.26 172.49 49.7 170.7C47.68 169.29 48.45 164.05 50.47 160.62C53.94 154.7 62.27 152.14 64.32 154.27H64.31Z" fill="#BDD7F0"/>
<path d="M52.02 133.2C53.17 132.23 56.06 133.9 57.31 134.63C64.35 138.71 68.97 147.51 67.15 149.38C65.66 150.91 59.51 148.1 55.87 144.03C52.49 140.25 50.48 134.51 52.02 133.2Z" fill="#BDD7F0"/>
<path d="M70.56 154.92C71.71 153.95 74.6 155.62 75.85 156.35C82.89 160.43 87.51 169.23 85.69 171.1C84.2 172.63 78.05 169.82 74.41 165.75C71.03 161.97 69.02 156.23 70.56 154.92Z" fill="#BDD7F0"/>
<path d="M72.68 150.25C71.85 148.23 75.7001 144.86 77.6601 143.48C82.2601 140.23 89.24 138.88 90.71 141.15C91.92 143.02 89.38 147.27 86.35 149.52C81.41 153.2 73.67 152.69 72.67 150.26L72.68 150.25Z" fill="#BDD7F0"/>
<path d="M63.5901 151.36C63.7501 149.19 58.2801 147 54.7501 146.21C49.3501 145.01 42.3201 145.73 41.7701 148.1C41.2701 150.24 46.0601 153.68 50.6701 154.72C56.5701 156.05 63.42 153.72 63.6 151.36H63.5901Z" fill="#BDD7F0"/>
<path d="M65.7601 156.93C63.6201 157.33 62.9001 163.18 63.0501 166.8C63.2701 172.32 65.7601 178.94 68.2001 178.87C70.3901 178.8 72.5001 173.3 72.3201 168.57C72.1001 162.52 68.1001 156.5 65.7701 156.93H65.7601Z" fill="#BDD7F0"/>
<path d="M72.8001 152.15C72.9201 151.93 73.2101 151.74 80.8201 153.06C86.6401 154.07 89.71 154.74 92.34 157.15C93.14 157.88 94 158.69 93.82 159.47C93.43 161.14 88.3901 161.81 84.4301 161.06C77.4601 159.74 71.9801 153.66 72.8001 152.16V152.15Z" fill="#BDD7F0"/>
<path d="M69.8939 161.61C74.2688 161.311 77.573 157.522 77.274 153.147C76.975 148.772 73.186 145.468 68.811 145.767C64.4361 146.066 61.1319 149.855 61.431 154.229C61.73 158.604 65.519 161.909 69.8939 161.61Z" fill="#BDD7F0"/>
<path d="M61.48 152.66C62.06 154.59 63.36 156.3 65.26 157.35C69.1 159.47 73.93 158.06 76.05 154.22C76.54 153.32 76.84 152.37 76.97 151.42C77.56 153.39 77.39 155.58 76.32 157.52C74.2 161.36 69.37 162.76 65.53 160.65C62.58 159.03 61.07 155.81 61.48 152.67V152.66Z" fill="#BDD7F0"/>
<mask id="mask0_0_1" style="mask-type:luminance" maskUnits="userSpaceOnUse" x="9" y="21" width="284" height="209">
<path d="M62.53 205.27C77.92 216.07 91.89 221.23 101.09 223.87C115.03 227.87 126.02 228.37 143.08 229.15C157.95 229.83 168.92 230.33 182.98 228.12C190.53 226.93 208.28 223.98 227.79 213.08C263.56 193.08 278.53 161.3 283.37 150.64C290.13 135.75 294.11 126.97 292.66 115C290.11 93.96 272.47 81.13 252.5 64.81C247.4 60.64 228.27 45.52 198.34 35.39C191.67 33.13 177.28 28.7 134.35 25.42C84.38 21.61 59.1 19.23 47.09 26.96C5.50996 53.73 9.33997 107.73 10.03 117.5C10.43 123.11 11.38 147.2 28.29 170.81C36.43 182.18 47.62 193.74 62.53 205.27Z" fill="white"/>
</mask>
<g mask="url(#mask0_0_1)">
<path d="M194.74 228.61C197.54 227.72 200.44 227.19 203.35 226.49C207.48 225.49 211.41 223.74 215.32 222.09C223.54 218.62 231.88 214.96 239.36 210.07C244.17 206.93 248.67 203.41 252.93 199.62C253.48 196.83 254.03 193.69 254.62 189.97C257.3 172.9 263.63 155.24 258.83 152.46C251.25 148.07 217.16 141.09 192.97 140.52C174.27 140.08 145.05 143.69 127.6 152.07C96.84 166.85 129.28 196.97 142.27 231.46C146.11 231.4 149.95 231.33 153.79 231.24C167.12 230.9 180.48 230.28 193.73 228.71C194.06 228.67 194.41 228.64 194.74 228.6V228.61Z" fill="#02912A"/>
<path d="M192.19 224.12C192.48 225.58 192.8 227.14 193.15 228.78C193.34 228.76 193.53 228.74 193.73 228.72C194.06 228.68 194.41 228.65 194.74 228.61C197.54 227.72 200.44 227.19 203.35 226.49C207.26 225.54 211 223.92 214.7 222.35C206.53 201.92 206.72 190.56 196.37 185.82C195.19 185.28 188.75 182.48 183.17 185.18C177.14 188.1 175.51 195.82 174.16 201.92C171.99 211.67 169.2 221.27 166.29 230.83C171.68 230.6 177.06 230.28 182.43 229.84C186.24 214.83 189.85 212.28 192.18 224.13L192.19 224.12Z" fill="#02912A"/>
<path d="M153.79 231.25C155.6 231.2 157.4 231.15 159.21 231.09C158.12 223.09 156.28 214 153.21 204.46C151.22 198.28 144.64 177.81 138.24 178.38C134.63 178.71 130.62 191.17 127.81 202.34C132.91 211.48 138.44 221.28 142.27 231.47C146.11 231.41 149.95 231.34 153.79 231.25Z" fill="#02912A"/>
<path d="M239.36 210.07C244.17 206.93 248.67 203.41 252.93 199.62C253.48 196.83 254.03 193.69 254.62 189.97C254.64 189.82 254.67 189.66 254.69 189.51C253.12 183.29 250.74 177.25 247.37 176.95C240.97 176.37 234.39 196.84 232.4 203.03C230.97 207.47 229.82 211.81 228.88 215.99C232.49 214.2 236.01 212.27 239.36 210.08V210.07Z" fill="#02912A"/>
<path d="M125.12 231.69C133.67 231.58 142.22 231.5 150.77 231.31C150.74 231.13 150.7 230.95 150.67 230.76C148.6 218.61 146.81 212.17 144.58 209.69C138.06 202.45 117.17 207.82 114.3 217.65C114.11 218.32 114.59 222.6 115.68 228.66C118.94 229.26 122.18 230.21 125.13 231.69H125.12Z" fill="#E5A589"/>
<path d="M239.36 210.07C253.1 201.1 264.33 189.04 274.56 176.32C273.82 168.03 272.65 162.57 268.35 158.41C265.51 155.66 261.66 153.82 258.83 152.46C253.23 149.78 250.43 148.43 248.36 148.89C240.6 150.6 232.51 192 233.84 213.39C235.72 212.34 237.57 211.24 239.37 210.07H239.36Z" fill="#00AB35"/>
<path d="M135.99 149.5C133.92 149.04 131.12 150.39 125.52 153.07C122.69 154.43 118.84 156.27 116 159.02C110.76 164.09 110.16 171.08 109.34 182.82C109.03 187.27 109.22 187.92 109.58 204.24C109.9 218.82 111.53 228.31 115.39 227.38C115.95 227.25 121.99 221.93 132.59 220.87C143.92 219.74 149.39 221.98 149.84 219.73C153.48 201.25 144.54 151.37 136 149.49L135.99 149.5Z" fill="#00AB35"/>
<path d="M200.28 47.75C201.58 46.76 205.28 43.76 210.28 44.18C242.44 46.86 243.57 93.57 242.41 105.34C241.16 118 237.89 128.42 237.89 128.43C236.8 131.91 241.52 142.46 242.77 151.03C243.21 154.05 241.93 162.4 238.37 167.92C235.09 173 231.81 174.15 229.08 179.13C226.59 183.68 228.72 186.51 228.13 192.7C226.93 205.2 216.04 216.2 212.42 214.83C210.61 214.15 210.78 210.43 210.52 205.79C209.43 186.41 202.75 183.29 201.48 169.62C200.88 163.17 205.21 154.06 213.63 132.4C235.65 75.79 202.82 84.03 195.03 75.45C190.61 70.58 190.19 55.45 200.29 47.76L200.28 47.75Z" fill="#293C59"/>
<path d="M202.5 44.89C200.62 42.21 196.66 41.85 193.22 41.8C156.25 41.22 145.77 86.91 144.91 102.96C144.55 109.66 143.65 117.55 147.77 125.09C149.35 127.98 150.87 129.44 151.82 133.18C153.21 138.69 151.96 143.67 151.34 146.03C150.13 150.64 149.01 150.74 147.06 156.98C145.7 161.33 145.02 163.5 145.16 165.79C145.37 169.27 147.2 172.55 150.87 179.12C152.94 182.83 153.6 183.53 153.96 185.55C154.69 189.6 152.86 191.36 152.77 194.59C152.61 200.52 158.5 205.17 162.29 208.16C170.71 214.8 181.27 217.07 182.04 215.54C182.56 214.51 177.98 212.99 175.61 208.16C172.14 201.09 177.86 195.96 178.47 185.79C179.2 173.56 171.41 173.03 169.66 156.76C168.59 146.82 171.4 146.08 170.14 134.15C169.07 124.04 166.94 123.43 165.62 113.92C164.38 104.96 163.86 92.72 171.53 86.45C179.32 80.08 189.15 82.08 195.14 74.97C197.07 72.68 196.29 74.63 198.46 65.13C201.39 52.32 204.92 48.35 202.51 44.9L202.5 44.89Z" fill="#293C59"/>
<path d="M149.24 175.81C148.18 173.91 147.27 172.29 146.51 170.85C147.45 173.02 148.89 175.6 150.86 179.12C151.36 180.01 151.77 180.73 152.12 181.33C151.71 179.91 150.97 178.91 149.23 175.81H149.24Z" fill="#293C59"/>
<path d="M147.77 125.09C148.44 126.32 149.11 127.3 149.72 128.3C148.88 125.92 147.75 124.54 146.56 122.5C146.91 123.37 147.31 124.23 147.78 125.09H147.77Z" fill="#293C59"/>
<path d="M173.99 204.84C174.28 205.43 174.6 205.97 174.95 206.47C173.04 200.22 177.91 195.13 178.47 185.78C178.8 180.22 177.38 177.08 175.56 173.78C176.51 176.11 177.07 178.75 176.85 182.47C176.24 192.64 170.53 197.77 173.99 204.84Z" fill="#293C59"/>
<path d="M202.5 44.89C202.26 44.54 201.98 44.24 201.67 43.96C201.79 47.14 199.13 51.75 196.83 61.8C194.66 71.29 195.44 69.34 193.51 71.64C187.52 78.75 177.68 76.75 169.9 83.12C162.23 89.39 162.75 101.64 163.99 110.59C165.31 120.1 167.44 120.71 168.51 130.82C169.77 142.74 166.97 143.49 168.03 153.43C168.77 160.33 170.6 164.4 172.4 167.73C171.21 164.97 170.17 161.54 169.65 156.74C168.58 146.8 171.39 146.06 170.13 134.13C169.06 124.02 166.93 123.41 165.61 113.9C164.37 104.94 163.85 92.7 171.52 86.43C179.31 80.06 189.14 82.06 195.13 74.95C197.06 72.66 196.28 74.61 198.45 65.11C201.38 52.3 204.91 48.33 202.5 44.88V44.89Z" fill="#293C59"/>
<path d="M179.2 212.67C176.06 212.84 167.63 210.34 160.66 204.84C158.33 203 155.2 200.53 153.18 197.53C154.57 202.07 159.15 205.68 162.28 208.15C170.7 214.79 181.26 217.06 182.03 215.53C182.33 214.93 180.91 214.16 179.19 212.67H179.2Z" fill="#293C59"/>
<path d="M220.59 171.17C222.95 156.12 217.37 144.79 220.43 136.85C224.1 127.32 225.3 113.49 226.23 107.17C227.22 100.42 228.22 73.77 206.4 68.07C202.59 67.07 193.73 71.96 197.03 75.6C204.82 84.18 234.87 77.91 212.85 134.52C204.42 156.18 202.88 163.31 203.48 169.76C204.56 181.39 209.55 185.38 211.69 198.22C212.2 195.73 213.23 194.37 215.76 187.26C218.23 180.33 219.88 175.7 220.59 171.16V171.17Z" fill="#293C59"/>
<path d="M192.83 73.15C186.51 76.71 180.92 67.09 173.24 71.68C158.33 80.6 159.93 105.21 160 109.2C160.13 116.14 162.02 121.38 163.54 125.62C166.29 133.24 167.63 132.6 169.01 137.21C172.6 149.19 164.12 155.44 164.18 176.48C164.18 178.84 164.19 180.83 164.5 183.24C165.7 192.62 170.49 200.34 176.14 206.44C174.64 200.42 179.26 195.35 179.81 186.26C180.54 174.03 172.75 173.5 171 157.23C169.93 147.29 172.74 146.55 171.48 134.62C170.41 124.51 168.28 123.9 166.96 114.39C165.72 105.43 165.2 93.19 172.87 86.92C180.66 80.55 190.49 82.55 196.48 75.44C198.24 73.35 197.75 74.78 199.29 67.85C197.05 70.4 194.8 72.04 192.82 73.15H192.83Z" fill="#293C59"/>
<path d="M165.06 93.92C164.65 96.09 164.57 98.54 164.43 103.44C164.3 107.82 164.21 111.43 164.75 116.13C165.09 119.12 165.51 122.59 166.97 126.92C168.59 131.72 170.62 135.05 171.1 135.8C172.85 138.6 176.89 144.91 184.74 148.81C186.66 149.76 187.91 150.38 189.82 150.71C196.73 151.91 202.56 147.61 205.69 145.32C206.91 144.42 211.99 140.56 215.84 133.26C218.97 127.35 219.58 122.43 220.6 114.22C221.65 105.8 222.25 100.91 220.6 94.55C219.59 90.66 218.12 85.02 213.3 80.59C206.5 74.35 197.5 74.61 188.55 74.88C181.33 75.09 177.05 75.22 173 78.37C167.18 82.9 165.69 90.65 165.07 93.92H165.06Z" fill="#E5A589"/>
<path d="M150.54 231.31C150.02 228.3 149.52 225.64 149.02 223.32C148.13 224.79 145.71 228.53 143.95 231.44C146.15 231.4 148.34 231.35 150.54 231.31Z" fill="#E5A589"/>
<path d="M163.47 139.43C167.68 132.39 171.73 127.63 173.17 125.97C181.99 115.84 186.81 114.51 188.61 114.2C189.27 114.08 190.75 113.84 192.56 114.2C195.66 114.82 197.63 116.8 198.67 117.9C204.61 124.21 209.19 132.91 214.83 141.78C217.83 146.5 218.25 146.73 218.42 148.17C219.18 154.73 211.33 157.83 201.9 169.03C193.22 179.34 192.66 185.27 188.61 185.18C184.44 185.09 184.27 178.79 176.04 168.36C166.92 156.81 158.83 154.04 159.52 147.17C159.66 145.81 160.93 143.69 163.47 139.43Z" fill="white"/>
<path d="M167.91 178.33C168.42 180.29 168.9 182.35 168.39 184.84C167.96 186.93 163.53 199.27 163.27 199.92C157.38 214.31 151.91 224.14 147.14 231.39C149.36 231.35 151.58 231.31 153.79 231.26C161.05 231.08 168.31 230.8 175.55 230.34C179.31 217.07 183.83 201.27 184.73 199.28C186.77 194.76 186.96 194.97 187.59 193.09C188.79 189.47 188.83 186.45 188.86 181.51C188.86 180.35 188.76 177.99 188.54 173.26C188.19 165.56 188.05 164.17 188.22 161.2C188.4 158.08 188.49 156.49 189.01 154.22C190.22 148.94 192.44 145.63 191.07 144.22C190.37 143.5 189.01 143.43 189.01 143.43C189.01 143.43 192.31 138.29 193.29 132.01C193.42 131.16 193.84 128.3 192.5 127.41C191.84 126.97 190.6 126.62 190.6 126.62C190.6 126.62 190.58 125.25 190.12 124.08C189.79 123.24 188.96 122.18 188.06 122.18C187.08 122.18 185.36 124.24 185.36 124.24C185.36 124.24 183.34 124.28 182.35 124.87C178.38 127.25 168.43 144.7 164.9 150.26C161.85 155.05 161.15 155.76 160.93 157.56C160.64 159.89 161.59 160.59 164.26 167.08C164.26 167.08 166.17 171.72 167.91 178.34V178.33Z" fill="#E5A589"/>
<path d="M187.59 188.64C188.48 191.87 189.5 191.32 191.72 196.73C194.16 202.68 194.43 207.63 194.89 209.42C196.7 216.37 198.2 222.12 199.65 227.33C200.88 227.05 202.11 226.79 203.35 226.49C207.48 225.49 211.41 223.74 215.32 222.09C218.14 220.9 220.97 219.68 223.78 218.4C220.99 213.41 218.14 207.83 215.51 201.8C214.39 199.24 214.32 198.6 212.42 194.22C210.75 190.37 210.01 189.03 209.68 186.49C209.5 185.08 209.25 183.02 210.04 180.66C210.29 179.91 218.96 165.67 218.25 158.17C218.01 155.67 216.83 154.46 212.9 148.77C209.39 143.68 208.77 142.01 205.28 136.63C204.85 135.97 204.27 135.08 203.61 133.77C202.86 132.28 203 132.19 202.54 131.51C202.29 131.14 200.9 129.09 198.85 128.89C197.53 128.76 196.11 129.01 196.11 129.01C196.11 129.01 194.21 126.04 191.83 129.84C190.6 131.81 193.97 138.17 193.97 138.17C193.97 138.17 189.69 138.41 191.71 151.5C192.45 156.32 192.4 156.22 192.42 158.64C192.45 162.1 191.91 164.7 191.47 166.73C188.06 182.5 186.37 184.22 187.58 188.63L187.59 188.64Z" fill="#E5A589"/>
<path d="M174.82 154.85C174.5 154.69 174.38 154.3 174.55 153.98C176.37 150.49 178.19 147 179.97 143.6C180.1 143.35 181.26 141.13 183.3 137.29C185.02 134.06 185.81 132.58 186.88 130.73C187.51 129.63 188.16 128.53 188.81 127.46C189 127.16 189.39 127.06 189.7 127.25C190 127.44 190.1 127.83 189.91 128.13C189.26 129.2 188.62 130.29 187.99 131.37C186.93 133.21 186.14 134.68 184.43 137.9C182.39 141.74 181.23 143.96 181.1 144.2C179.32 147.61 177.5 151.09 175.69 154.58C175.53 154.9 175.14 155.02 174.82 154.85Z" fill="#E5A589"/>
<path d="M169.22 152.58C168.91 152.41 168.8 152.02 168.97 151.71C170.4 149.11 171.82 146.5 173.18 143.95L173.2 143.92C175.4 139.8 176.5 137.74 177.22 136.34C177.5 135.8 177.76 135.3 178 134.83C179.24 132.43 180.05 130.84 181.41 128.67C182.09 127.58 182.81 126.51 183.56 125.47C183.77 125.18 184.17 125.12 184.46 125.33C184.75 125.54 184.81 125.94 184.6 126.23C183.87 127.25 183.17 128.3 182.5 129.36C181.17 131.48 180.4 132.96 179.14 135.42C178.9 135.89 178.64 136.39 178.36 136.93C177.63 138.33 176.53 140.4 174.33 144.52L174.31 144.55C172.95 147.1 171.53 149.71 170.1 152.32C169.93 152.63 169.54 152.75 169.22 152.57V152.58Z" fill="#E5A589"/>
<path d="M180.06 163.3C179.71 163.24 179.46 162.91 179.52 162.56C179.95 160.09 180.6 157.66 181.47 155.34C182.84 151.67 184.46 149.03 185.33 147.61C186 146.52 186.72 145.44 187.47 144.4C187.68 144.11 188.09 144.04 188.38 144.26C188.66 144.47 188.72 144.87 188.52 145.15C187.79 146.16 187.08 147.21 186.43 148.28C185.58 149.66 184.01 152.23 182.68 155.78C181.84 158.03 181.21 160.37 180.79 162.76C180.73 163.11 180.4 163.35 180.06 163.29V163.3Z" fill="#E5A589"/>
<path d="M206.95 158.65C206.62 158.79 206.24 158.63 206.11 158.3C204.79 155.11 201.44 146.89 199.67 141.39C199.63 141.27 198.75 138.53 197.6 134.72C197.23 133.5 196.87 132.27 196.51 131.05C196.41 130.71 196.61 130.35 196.95 130.25C197.29 130.15 197.65 130.35 197.75 130.69C198.11 131.91 198.47 133.14 198.84 134.35C199.99 138.15 200.86 140.89 200.9 141C202.65 146.45 205.98 154.63 207.3 157.81C207.44 158.14 207.28 158.51 206.95 158.65Z" fill="#E5A589"/>
<path d="M212.98 156.75C212.67 156.93 212.27 156.82 212.1 156.5C211.27 155 210.46 153.48 209.7 151.96C207.36 147.26 205.85 143.44 204.76 140.64C204.18 139.15 203.61 137.65 203.07 136.15C202.95 135.81 203.12 135.45 203.46 135.33C203.79 135.21 204.16 135.38 204.28 135.72C204.82 137.2 205.38 138.7 205.96 140.18C207.05 142.95 208.54 146.75 210.86 151.39C211.61 152.89 212.4 154.4 213.23 155.88C213.4 156.19 213.29 156.58 212.98 156.75Z" fill="#E5A589"/>
<path d="M199.96 161.19C199.61 161.23 199.29 160.97 199.26 160.62C198.96 157.82 198.56 155.07 198.06 152.43C197.64 150.2 197.35 149.04 197.13 148.2C196.88 147.21 196.72 146.61 196.62 145.22L196.6 144.98C196.53 143.95 196.41 142.38 195.7 140.47C195.52 139.99 195.31 139.51 195.08 139.04C194.92 138.73 195.04 138.36 195.34 138.19C195.66 138.01 196.06 138.13 196.23 138.46C196.49 138.97 196.71 139.49 196.91 140.02C197.68 142.1 197.81 143.84 197.88 144.88L197.9 145.11C198 146.38 198.13 146.91 198.38 147.87C198.6 148.73 198.9 149.91 199.32 152.18C199.82 154.86 200.23 157.64 200.53 160.48C200.57 160.83 200.31 161.15 199.95 161.19H199.96Z" fill="#E5A589"/>
<path d="M175.47 69.79C174.28 70.68 170.23 73.72 170.4 77.52C170.67 83.35 180.74 87.75 187.06 89.35C194.66 91.27 196.63 89.09 205.65 91.76C209.81 92.99 213.22 94.05 216.27 97.07C221.18 101.95 221.26 108.08 222.55 107.93C223.86 107.78 224.59 101.26 224 94.89C223.63 90.91 223 84.14 219.41 78.47C210.7 64.73 186.93 61.19 175.47 69.78V69.79Z" fill="#293C59"/>
<path d="M174.66 72.41C173.47 73.3 169.42 76.34 169.59 80.14C169.86 85.97 179.93 90.37 186.25 91.97C193.85 93.89 195.82 91.71 204.84 94.38C209 95.61 212.41 96.67 215.46 99.69C220.37 104.57 220.45 110.7 221.74 110.55C223.05 110.4 223.78 103.88 223.19 97.51C222.82 93.53 222.19 86.76 218.6 81.09C209.89 67.35 186.12 63.81 174.66 72.4V72.41Z" fill="#293C59"/>
<path d="M175.47 69.79C174.28 70.68 170.23 73.72 170.4 77.52C170.67 83.35 180.74 87.75 187.06 89.35C194.66 91.27 196.63 89.09 205.65 91.76C209.81 92.99 213.22 94.05 216.27 97.07C221.18 101.95 221.26 108.08 222.55 107.93C223.86 107.78 224.59 101.26 224 94.89C223.63 90.91 223 84.14 219.41 78.47C210.7 64.73 186.93 61.19 175.47 69.78V69.79Z" fill="#293C59"/>
<path d="M179.33 72.45C179.23 71 186.59 68.74 193.57 68.83C196.52 68.87 204.65 69.09 211.43 74.87C217.72 80.23 220.48 88.35 219.4 89.11C218.5 89.75 215.56 84.86 209.5 80.66C195.68 71.06 179.47 74.6 179.32 72.45H179.33Z" fill="#293C59"/>
<path d="M160.5 66.41C159.81 66.12 156.89 71.41 155.19 75.1C154.44 76.72 150.95 84.47 149.88 96.1C149.59 99.22 149.23 103.41 149.88 108.9C150.75 116.24 153.16 123.54 153.98 123.39C154.99 123.2 151.67 112.17 153.01 97.08C154.58 79.48 161.55 66.86 160.49 66.42L160.5 66.41Z" fill="#293C59"/>
</g>
<path d="M125.9 118.62C131.31 118.62 135.69 114.23 135.69 108.8C135.69 103.37 131.31 98.98 125.9 98.98C120.49 98.98 116.1 103.37 116.1 108.8C116.1 114.23 120.49 118.62 125.9 118.62Z" fill="#FFAA00" stroke="#FFAA00" stroke-width="0.64" stroke-miterlimit="10"/>
<path d="M125.9 95.45V100.12Z" fill="#FFAA00"/>
<path d="M125.9 95.45V100.12" stroke="#FFAA00" stroke-width="1.64" stroke-linecap="round" stroke-linejoin="round"/>
<path d="M119.23 97.24L121.56 101.27Z" fill="#FFAA00"/>
<path d="M119.23 97.24L121.56 101.27" stroke="#FFAA00" stroke-width="1.64" stroke-linecap="round" stroke-linejoin="round"/>
<path d="M114.36 102.13L118.37 104.46Z" fill="#FFAA00"/>
<path d="M114.36 102.13L118.37 104.46" stroke="#FFAA00" stroke-width="1.64" stroke-linecap="round" stroke-linejoin="round"/>
<path d="M112.58 108.8H117.21Z" fill="#FFAA00"/>
<path d="M112.58 108.8H117.21" stroke="#FFAA00" stroke-width="1.64" stroke-linecap="round" stroke-linejoin="round"/>
<path d="M114.36 115.49L118.37 113.16Z" fill="#FFAA00"/>
<path d="M114.36 115.49L118.37 113.16" stroke="#FFAA00" stroke-width="1.64" stroke-linecap="round" stroke-linejoin="round"/>
<path d="M119.23 120.36L121.56 116.33Z" fill="#FFAA00"/>
<path d="M119.23 120.36L121.56 116.33" stroke="#FFAA00" stroke-width="1.64" stroke-linecap="round" stroke-linejoin="round"/>
<path d="M125.9 122.17V117.5Z" fill="#FFAA00"/>
<path d="M125.9 122.17V117.5" stroke="#FFAA00" stroke-width="1.64" stroke-linecap="round" stroke-linejoin="round"/>
<path d="M132.57 120.36L130.24 116.33Z" fill="#FFAA00"/>
<path d="M132.57 120.36L130.24 116.33" stroke="#FFAA00" stroke-width="1.64" stroke-linecap="round" stroke-linejoin="round"/>
<path d="M137.42 115.49L133.41 113.16Z" fill="#FFAA00"/>
<path d="M137.42 115.49L133.41 113.16" stroke="#FFAA00" stroke-width="1.64" stroke-linecap="round" stroke-linejoin="round"/>
<path d="M139.22 108.8H134.59Z" fill="#FFAA00"/>
<path d="M139.22 108.8H134.59" stroke="#FFAA00" stroke-width="1.64" stroke-linecap="round" stroke-linejoin="round"/>
<path d="M137.42 102.13L133.41 104.46Z" fill="#FFAA00"/>
<path d="M137.42 102.13L133.41 104.46" stroke="#FFAA00" stroke-width="1.64" stroke-linecap="round" stroke-linejoin="round"/>
<path d="M132.57 97.24L130.24 101.27Z" fill="#FFAA00"/>
<path d="M132.57 97.24L130.24 101.27" stroke="#FFAA00" stroke-width="1.64" stroke-linecap="round" stroke-linejoin="round"/>
<path d="M125.9 96.79C126.64 96.79 127.24 96.19 127.24 95.45C127.24 94.71 126.64 94.11 125.9 94.11C125.16 94.11 124.56 94.71 124.56 95.45C124.56 96.19 125.16 96.79 125.9 96.79Z" fill="#FFAA00" stroke="#FFAA00" stroke-width="0.64" stroke-miterlimit="10"/>
<path d="M122.16 108.49C122.9 108.49 123.5 107.89 123.5 107.15C123.5 106.41 122.9 105.81 122.16 105.81C121.42 105.81 120.82 106.41 120.82 107.15C120.82 107.89 121.42 108.49 122.16 108.49Z" fill="#FFAA00" stroke="#FFAA00" stroke-width="0.64" stroke-miterlimit="10"/>
<path d="M128.47 106.68C129.21 106.68 129.81 106.08 129.81 105.34C129.81 104.6 129.21 104 128.47 104C127.73 104 127.13 104.6 127.13 105.34C127.13 106.08 127.73 106.68 128.47 106.68Z" fill="#FFAA00" stroke="#FFAA00" stroke-width="0.64" stroke-miterlimit="10"/>
<path d="M127.12 113.45C127.86 113.45 128.46 112.85 128.46 112.11C128.46 111.37 127.86 110.77 127.12 110.77C126.38 110.77 125.78 111.37 125.78 112.11C125.78 112.85 126.38 113.45 127.12 113.45Z" fill="#FFAA00" stroke="#FFAA00" stroke-width="0.64" stroke-miterlimit="10"/>
<path d="M119.23 98.6C119.97 98.6 120.57 98 120.57 97.26C120.57 96.52 119.97 95.92 119.23 95.92C118.49 95.92 117.89 96.52 117.89 97.26C117.89 98 118.49 98.6 119.23 98.6Z" fill="#FFAA00" stroke="#FFAA00" stroke-width="0.64" stroke-miterlimit="10"/>
<path d="M114.36 103.48C115.1 103.48 115.7 102.88 115.7 102.14C115.7 101.4 115.1 100.8 114.36 100.8C113.62 100.8 113.02 101.4 113.02 102.14C113.02 102.88 113.62 103.48 114.36 103.48Z" fill="#FFAA00" stroke="#FFAA00" stroke-width="0.64" stroke-miterlimit="10"/>
<path d="M114.36 116.83C115.1 116.83 115.7 116.23 115.7 115.49C115.7 114.75 115.1 114.15 114.36 114.15C113.62 114.15 113.02 114.75 113.02 115.49C113.02 116.23 113.62 116.83 114.36 116.83Z" fill="#FFAA00" stroke="#FFAA00" stroke-width="0.64" stroke-miterlimit="10"/>
<path d="M119.23 121.72C119.97 121.72 120.57 121.12 120.57 120.38C120.57 119.64 119.97 119.04 119.23 119.04C118.49 119.04 117.89 119.64 117.89 120.38C117.89 121.12 118.49 121.72 119.23 121.72Z" fill="#FFAA00" stroke="#FFAA00" stroke-width="0.64" stroke-miterlimit="10"/>
<path d="M125.9 123.51C126.64 123.51 127.24 122.91 127.24 122.17C127.24 121.43 126.64 120.83 125.9 120.83C125.16 120.83 124.56 121.43 124.56 122.17C124.56 122.91 125.16 123.51 125.9 123.51Z" fill="#FFAA00" stroke="#FFAA00" stroke-width="0.64" stroke-miterlimit="10"/>
<path d="M132.57 121.72C133.31 121.72 133.91 121.12 133.91 120.38C133.91 119.64 133.31 119.04 132.57 119.04C131.83 119.04 131.23 119.64 131.23 120.38C131.23 121.12 131.83 121.72 132.57 121.72Z" fill="#FFAA00" stroke="#FFAA00" stroke-width="0.64" stroke-miterlimit="10"/>
<path d="M137.42 116.83C138.16 116.83 138.76 116.23 138.76 115.49C138.76 114.75 138.16 114.15 137.42 114.15C136.68 114.15 136.08 114.75 136.08 115.49C136.08 116.23 136.68 116.83 137.42 116.83Z" fill="#FFAA00" stroke="#FFAA00" stroke-width="0.64" stroke-miterlimit="10"/>
<path d="M139.22 110.14C139.96 110.14 140.56 109.54 140.56 108.8C140.56 108.06 139.96 107.46 139.22 107.46C138.48 107.46 137.88 108.06 137.88 108.8C137.88 109.54 138.48 110.14 139.22 110.14Z" fill="#FFAA00" stroke="#FFAA00" stroke-width="0.64" stroke-miterlimit="10"/>
<path d="M137.42 103.48C138.16 103.48 138.76 102.88 138.76 102.14C138.76 101.4 138.16 100.8 137.42 100.8C136.68 100.8 136.08 101.4 136.08 102.14C136.08 102.88 136.68 103.48 137.42 103.48Z" fill="#FFAA00" stroke="#FFAA00" stroke-width="0.64" stroke-miterlimit="10"/>
<path d="M132.57 98.6C133.31 98.6 133.91 98 133.91 97.26C133.91 96.52 133.31 95.92 132.57 95.92C131.83 95.92 131.23 96.52 131.23 97.26C131.23 98 131.83 98.6 132.57 98.6Z" fill="#FFAA00" stroke="#FFAA00" stroke-width="0.64" stroke-miterlimit="10"/>
<path d="M111.22 110.14C111.96 110.14 112.56 109.54 112.56 108.8C112.56 108.06 111.96 107.46 111.22 107.46C110.48 107.46 109.88 108.06 109.88 108.8C109.88 109.54 110.48 110.14 111.22 110.14Z" fill="#FFAA00" stroke="#FFAA00" stroke-width="0.64" stroke-miterlimit="10"/>
<path d="M128.85 67.12C132.57 67.12 135.58 64.1 135.58 60.36C135.58 56.62 132.57 53.6 128.85 53.6C125.13 53.6 122.1 56.62 122.1 60.36C122.1 64.1 125.12 67.12 128.85 67.12Z" fill="#FFAA00" stroke="#FFAA00" stroke-width="0.63" stroke-miterlimit="10"/>
<path d="M128.85 51.17V54.38Z" fill="#FFAA00"/>
<path d="M128.85 51.17V54.38" stroke="#FFAA00" stroke-width="1.13" stroke-linecap="round" stroke-linejoin="round"/>
<path d="M124.27 52.4L125.87 55.17Z" fill="#FFAA00"/>
<path d="M124.27 52.4L125.87 55.17" stroke="#FFAA00" stroke-width="1.13" stroke-linecap="round" stroke-linejoin="round"/>
<path d="M120.91 55.77L123.67 57.37Z" fill="#FFAA00"/>
<path d="M120.91 55.77L123.67 57.37" stroke="#FFAA00" stroke-width="1.13" stroke-linecap="round" stroke-linejoin="round"/>
<path d="M119.69 60.36H122.88Z" fill="#FFAA00"/>
<path d="M119.69 60.36H122.88" stroke="#FFAA00" stroke-width="1.13" stroke-linecap="round" stroke-linejoin="round"/>
<path d="M120.91 64.96L123.67 63.36Z" fill="#FFAA00"/>
<path d="M120.91 64.96L123.67 63.36" stroke="#FFAA00" stroke-width="1.13" stroke-linecap="round" stroke-linejoin="round"/>
<path d="M124.27 68.31L125.87 65.54Z" fill="#FFAA00"/>
<path d="M124.27 68.31L125.87 65.54" stroke="#FFAA00" stroke-width="1.13" stroke-linecap="round" stroke-linejoin="round"/>
<path d="M128.85 69.56V66.35Z" fill="#FFAA00"/>
<path d="M128.85 69.56V66.35" stroke="#FFAA00" stroke-width="1.13" stroke-linecap="round" stroke-linejoin="round"/>
<path d="M133.44 68.31L131.84 65.54Z" fill="#FFAA00"/>
<path d="M133.44 68.31L131.84 65.54" stroke="#FFAA00" stroke-width="1.13" stroke-linecap="round" stroke-linejoin="round"/>
<path d="M136.78 64.96L134.02 63.36Z" fill="#FFAA00"/>
<path d="M136.78 64.96L134.02 63.36" stroke="#FFAA00" stroke-width="1.13" stroke-linecap="round" stroke-linejoin="round"/>
<path d="M138.02 60.36H134.83Z" fill="#FFAA00"/>
<path d="M138.02 60.36H134.83" stroke="#FFAA00" stroke-width="1.13" stroke-linecap="round" stroke-linejoin="round"/>
<path d="M136.78 55.77L134.02 57.37Z" fill="#FFAA00"/>
<path d="M136.78 55.77L134.02 57.37" stroke="#FFAA00" stroke-width="1.13" stroke-linecap="round" stroke-linejoin="round"/>
<path d="M133.44 52.4L131.84 55.17Z" fill="#FFAA00"/>
<path d="M133.44 52.4L131.84 55.17" stroke="#FFAA00" stroke-width="1.13" stroke-linecap="round" stroke-linejoin="round"/>
<path d="M128.85 52.1C129.36 52.1 129.77 51.69 129.77 51.18C129.77 50.67 129.36 50.26 128.85 50.26C128.34 50.26 127.93 50.67 127.93 51.18C127.93 51.69 128.34 52.1 128.85 52.1Z" fill="#FFAA00" stroke="#FFAA00" stroke-width="0.63" stroke-miterlimit="10"/>
<path d="M126.28 60.15C126.79 60.15 127.2 59.74 127.2 59.23C127.2 58.72 126.79 58.31 126.28 58.31C125.77 58.31 125.36 58.72 125.36 59.23C125.36 59.74 125.77 60.15 126.28 60.15Z" fill="#FFAA00" stroke="#FFAA00" stroke-width="0.63" stroke-miterlimit="10"/>
<path d="M130.62 58.9C131.13 58.9 131.54 58.49 131.54 57.98C131.54 57.47 131.13 57.06 130.62 57.06C130.11 57.06 129.7 57.47 129.7 57.98C129.7 58.49 130.11 58.9 130.62 58.9Z" fill="#FFAA00" stroke="#FFAA00" stroke-width="0.63" stroke-miterlimit="10"/>
<path d="M129.7 63.56C130.21 63.56 130.62 63.15 130.62 62.64C130.62 62.13 130.21 61.72 129.7 61.72C129.19 61.72 128.78 62.13 128.78 62.64C128.78 63.15 129.19 63.56 129.7 63.56Z" fill="#FFAA00" stroke="#FFAA00" stroke-width="0.63" stroke-miterlimit="10"/>
<path d="M124.27 53.34C124.78 53.34 125.19 52.93 125.19 52.42C125.19 51.91 124.78 51.5 124.27 51.5C123.76 51.5 123.35 51.91 123.35 52.42C123.35 52.93 123.76 53.34 124.27 53.34Z" fill="#FFAA00" stroke="#FFAA00" stroke-width="0.63" stroke-miterlimit="10"/>
<path d="M120.91 56.7C121.42 56.7 121.83 56.29 121.83 55.78C121.83 55.27 121.42 54.86 120.91 54.86C120.4 54.86 119.99 55.27 119.99 55.78C119.99 56.29 120.4 56.7 120.91 56.7Z" fill="#FFAA00" stroke="#FFAA00" stroke-width="0.63" stroke-miterlimit="10"/>
<path d="M120.91 65.88C121.42 65.88 121.83 65.47 121.83 64.96C121.83 64.45 121.42 64.04 120.91 64.04C120.4 64.04 119.99 64.45 119.99 64.96C119.99 65.47 120.4 65.88 120.91 65.88Z" fill="#FFAA00" stroke="#FFAA00" stroke-width="0.63" stroke-miterlimit="10"/>
<path d="M124.27 69.25C124.78 69.25 125.19 68.84 125.19 68.33C125.19 67.82 124.78 67.41 124.27 67.41C123.76 67.41 123.35 67.82 123.35 68.33C123.35 68.84 123.76 69.25 124.27 69.25Z" fill="#FFAA00" stroke="#FFAA00" stroke-width="0.63" stroke-miterlimit="10"/>
<path d="M128.85 70.48C129.36 70.48 129.77 70.07 129.77 69.56C129.77 69.05 129.36 68.64 128.85 68.64C128.34 68.64 127.93 69.05 127.93 69.56C127.93 70.07 128.34 70.48 128.85 70.48Z" fill="#FFAA00" stroke="#FFAA00" stroke-width="0.63" stroke-miterlimit="10"/>
<path d="M133.44 69.25C133.95 69.25 134.36 68.84 134.36 68.33C134.36 67.82 133.95 67.41 133.44 67.41C132.93 67.41 132.52 67.82 132.52 68.33C132.52 68.84 132.93 69.25 133.44 69.25Z" fill="#FFAA00" stroke="#FFAA00" stroke-width="0.63" stroke-miterlimit="10"/>
<path d="M136.79 65.88C137.3 65.88 137.71 65.47 137.71 64.96C137.71 64.45 137.3 64.04 136.79 64.04C136.28 64.04 135.87 64.45 135.87 64.96C135.87 65.47 136.28 65.88 136.79 65.88Z" fill="#FFAA00" stroke="#FFAA00" stroke-width="0.63" stroke-miterlimit="10"/>
<path d="M138.02 61.28C138.53 61.28 138.94 60.87 138.94 60.36C138.94 59.85 138.53 59.44 138.02 59.44C137.51 59.44 137.1 59.85 137.1 60.36C137.1 60.87 137.51 61.28 138.02 61.28Z" fill="#FFAA00" stroke="#FFAA00" stroke-width="0.63" stroke-miterlimit="10"/>
<path d="M136.79 56.7C137.3 56.7 137.71 56.29 137.71 55.78C137.71 55.27 137.3 54.86 136.79 54.86C136.28 54.86 135.87 55.27 135.87 55.78C135.87 56.29 136.28 56.7 136.79 56.7Z" fill="#FFAA00" stroke="#FFAA00" stroke-width="0.63" stroke-miterlimit="10"/>
<path d="M133.44 53.34C133.95 53.34 134.36 52.93 134.36 52.42C134.36 51.91 133.95 51.5 133.44 51.5C132.93 51.5 132.52 51.91 132.52 52.42C132.52 52.93 132.93 53.34 133.44 53.34Z" fill="#FFAA00" stroke="#FFAA00" stroke-width="0.63" stroke-miterlimit="10"/>
<path d="M118.75 61.28C119.26 61.28 119.67 60.87 119.67 60.36C119.67 59.85 119.26 59.44 118.75 59.44C118.24 59.44 117.83 59.85 117.83 60.36C117.83 60.87 118.24 61.28 118.75 61.28Z" fill="#FFAA00" stroke="#FFAA00" stroke-width="0.63" stroke-miterlimit="10"/>
<path d="M152.28 32.93C154.87 32.93 156.96 30.83 156.96 28.23C156.96 25.63 154.87 23.53 152.28 23.53C149.69 23.53 147.59 25.63 147.59 28.23C147.59 30.83 149.69 32.93 152.28 32.93Z" fill="#FFAA00" stroke="#FFAA00" stroke-width="0.44" stroke-miterlimit="10"/>
<path d="M152.28 21.84V24.07Z" fill="#FFAA00"/>
<path d="M152.28 21.84V24.07" stroke="#FFAA00" stroke-width="0.78" stroke-linecap="round" stroke-linejoin="round"/>
<path d="M149.09 22.7L150.2 24.63Z" fill="#FFAA00"/>
<path d="M149.09 22.7L150.2 24.63" stroke="#FFAA00" stroke-width="0.78" stroke-linecap="round" stroke-linejoin="round"/>
<path d="M146.76 25.04L148.68 26.15Z" fill="#FFAA00"/>
<path d="M146.76 25.04L148.68 26.15" stroke="#FFAA00" stroke-width="0.78" stroke-linecap="round" stroke-linejoin="round"/>
<path d="M145.91 28.23H148.13Z" fill="#FFAA00"/>
<path d="M145.91 28.23H148.13" stroke="#FFAA00" stroke-width="0.78" stroke-linecap="round" stroke-linejoin="round"/>
<path d="M146.76 31.43L148.68 30.32Z" fill="#FFAA00"/>
<path d="M146.76 31.43L148.68 30.32" stroke="#FFAA00" stroke-width="0.78" stroke-linecap="round" stroke-linejoin="round"/>
<path d="M149.09 33.76L150.2 31.83Z" fill="#FFAA00"/>
<path d="M149.09 33.76L150.2 31.83" stroke="#FFAA00" stroke-width="0.78" stroke-linecap="round" stroke-linejoin="round"/>
<path d="M152.28 34.62V32.39Z" fill="#FFAA00"/>
<path d="M152.28 34.62V32.39" stroke="#FFAA00" stroke-width="0.78" stroke-linecap="round" stroke-linejoin="round"/>
<path d="M155.47 33.76L154.36 31.83Z" fill="#FFAA00"/>
<path d="M155.47 33.76L154.36 31.83" stroke="#FFAA00" stroke-width="0.78" stroke-linecap="round" stroke-linejoin="round"/>
<path d="M157.79 31.43L155.87 30.32Z" fill="#FFAA00"/>
<path d="M157.79 31.43L155.87 30.32" stroke="#FFAA00" stroke-width="0.78" stroke-linecap="round" stroke-linejoin="round"/>
<path d="M158.65 28.23H156.43Z" fill="#FFAA00"/>
<path d="M158.65 28.23H156.43" stroke="#FFAA00" stroke-width="0.78" stroke-linecap="round" stroke-linejoin="round"/>
<path d="M157.79 25.04L155.87 26.15Z" fill="#FFAA00"/>
<path d="M157.79 25.04L155.87 26.15" stroke="#FFAA00" stroke-width="0.78" stroke-linecap="round" stroke-linejoin="round"/>
<path d="M155.47 22.7L154.36 24.63Z" fill="#FFAA00"/>
<path d="M155.47 22.7L154.36 24.63" stroke="#FFAA00" stroke-width="0.78" stroke-linecap="round" stroke-linejoin="round"/>
<path d="M152.28 22.48C152.63 22.48 152.92 22.19 152.92 21.84C152.92 21.49 152.63 21.2 152.28 21.2C151.93 21.2 151.64 21.49 151.64 21.84C151.64 22.19 151.93 22.48 152.28 22.48Z" fill="#FFAA00" stroke="#FFAA00" stroke-width="0.44" stroke-miterlimit="10"/>
<path d="M150.49 28.08C150.84 28.08 151.13 27.79 151.13 27.44C151.13 27.09 150.84 26.8 150.49 26.8C150.14 26.8 149.85 27.09 149.85 27.44C149.85 27.79 150.14 28.08 150.49 28.08Z" fill="#FFAA00" stroke="#FFAA00" stroke-width="0.44" stroke-miterlimit="10"/>
<path d="M153.51 27.21C153.86 27.21 154.15 26.92 154.15 26.57C154.15 26.22 153.86 25.93 153.51 25.93C153.16 25.93 152.87 26.22 152.87 26.57C152.87 26.92 153.16 27.21 153.51 27.21Z" fill="#FFAA00" stroke="#FFAA00" stroke-width="0.44" stroke-miterlimit="10"/>
<path d="M152.86 30.45C153.21 30.45 153.5 30.16 153.5 29.81C153.5 29.46 153.21 29.17 152.86 29.17C152.51 29.17 152.22 29.46 152.22 29.81C152.22 30.16 152.51 30.45 152.86 30.45Z" fill="#FFAA00" stroke="#FFAA00" stroke-width="0.44" stroke-miterlimit="10"/>
<path d="M149.09 23.35C149.44 23.35 149.73 23.06 149.73 22.71C149.73 22.36 149.44 22.07 149.09 22.07C148.74 22.07 148.45 22.36 148.45 22.71C148.45 23.06 148.74 23.35 149.09 23.35Z" fill="#FFAA00" stroke="#FFAA00" stroke-width="0.44" stroke-miterlimit="10"/>
<path d="M146.76 25.68C147.11 25.68 147.4 25.39 147.4 25.04C147.4 24.69 147.11 24.4 146.76 24.4C146.41 24.4 146.12 24.69 146.12 25.04C146.12 25.39 146.41 25.68 146.76 25.68Z" fill="#FFAA00" stroke="#FFAA00" stroke-width="0.44" stroke-miterlimit="10"/>
<path d="M146.76 32.07C147.11 32.07 147.4 31.78 147.4 31.43C147.4 31.08 147.11 30.79 146.76 30.79C146.41 30.79 146.12 31.08 146.12 31.43C146.12 31.78 146.41 32.07 146.76 32.07Z" fill="#FFAA00" stroke="#FFAA00" stroke-width="0.44" stroke-miterlimit="10"/>
<path d="M149.09 34.41C149.44 34.41 149.73 34.12 149.73 33.77C149.73 33.42 149.44 33.13 149.09 33.13C148.74 33.13 148.45 33.42 148.45 33.77C148.45 34.12 148.74 34.41 149.09 34.41Z" fill="#FFAA00" stroke="#FFAA00" stroke-width="0.44" stroke-miterlimit="10"/>
<path d="M152.28 35.27C152.63 35.27 152.92 34.98 152.92 34.63C152.92 34.28 152.63 33.99 152.28 33.99C151.93 33.99 151.64 34.28 151.64 34.63C151.64 34.98 151.93 35.27 152.28 35.27Z" fill="#FFAA00" stroke="#FFAA00" stroke-width="0.44" stroke-miterlimit="10"/>
<path d="M155.47 34.41C155.82 34.41 156.11 34.12 156.11 33.77C156.11 33.42 155.82 33.13 155.47 33.13C155.12 33.13 154.83 33.42 154.83 33.77C154.83 34.12 155.12 34.41 155.47 34.41Z" fill="#FFAA00" stroke="#FFAA00" stroke-width="0.44" stroke-miterlimit="10"/>
<path d="M157.79 32.07C158.14 32.07 158.43 31.78 158.43 31.43C158.43 31.08 158.14 30.79 157.79 30.79C157.44 30.79 157.15 31.08 157.15 31.43C157.15 31.78 157.44 32.07 157.79 32.07Z" fill="#FFAA00" stroke="#FFAA00" stroke-width="0.44" stroke-miterlimit="10"/>
<path d="M158.65 28.87C159 28.87 159.29 28.58 159.29 28.23C159.29 27.88 159 27.59 158.65 27.59C158.3 27.59 158.01 27.88 158.01 28.23C158.01 28.58 158.3 28.87 158.65 28.87Z" fill="#FFAA00" stroke="#FFAA00" stroke-width="0.44" stroke-miterlimit="10"/>
<path d="M157.79 25.68C158.14 25.68 158.43 25.39 158.43 25.04C158.43 24.69 158.14 24.4 157.79 24.4C157.44 24.4 157.15 24.69 157.15 25.04C157.15 25.39 157.44 25.68 157.79 25.68Z" fill="#FFAA00" stroke="#FFAA00" stroke-width="0.44" stroke-miterlimit="10"/>
<path d="M155.47 23.35C155.82 23.35 156.11 23.06 156.11 22.71C156.11 22.36 155.82 22.07 155.47 22.07C155.12 22.07 154.83 22.36 154.83 22.71C154.83 23.06 155.12 23.35 155.47 23.35Z" fill="#FFAA00" stroke="#FFAA00" stroke-width="0.44" stroke-miterlimit="10"/>
<path d="M145.26 28.87C145.61 28.87 145.9 28.58 145.9 28.23C145.9 27.88 145.61 27.59 145.26 27.59C144.91 27.59 144.62 27.88 144.62 28.23C144.62 28.58 144.91 28.87 145.26 28.87Z" fill="#FFAA00" stroke="#FFAA00" stroke-width="0.44" stroke-miterlimit="10"/>
<path d="M247.39 42.04C249.98 42.04 252.07 39.94 252.07 37.34C252.07 34.74 249.98 32.64 247.39 32.64C244.8 32.64 242.7 34.74 242.7 37.34C242.7 39.94 244.8 42.04 247.39 42.04Z" fill="#FFAA00" stroke="#FFAA00" stroke-width="0.44" stroke-miterlimit="10"/>
<path d="M247.39 30.96V33.19Z" fill="#FFAA00"/>
<path d="M247.39 30.96V33.19" stroke="#FFAA00" stroke-width="0.78" stroke-linecap="round" stroke-linejoin="round"/>
<path d="M244.2 31.82L245.31 33.75Z" fill="#FFAA00"/>
<path d="M244.2 31.82L245.31 33.75" stroke="#FFAA00" stroke-width="0.78" stroke-linecap="round" stroke-linejoin="round"/>
<path d="M241.87 34.16L243.79 35.27Z" fill="#FFAA00"/>
<path d="M241.87 34.16L243.79 35.27" stroke="#FFAA00" stroke-width="0.78" stroke-linecap="round" stroke-linejoin="round"/>
<path d="M241.02 37.35H243.24Z" fill="#FFAA00"/>
<path d="M241.02 37.35H243.24" stroke="#FFAA00" stroke-width="0.78" stroke-linecap="round" stroke-linejoin="round"/>
<path d="M241.87 40.54L243.79 39.43Z" fill="#FFAA00"/>
<path d="M241.87 40.54L243.79 39.43" stroke="#FFAA00" stroke-width="0.78" stroke-linecap="round" stroke-linejoin="round"/>
<path d="M244.2 42.87L245.31 40.94Z" fill="#FFAA00"/>
<path d="M244.2 42.87L245.31 40.94" stroke="#FFAA00" stroke-width="0.78" stroke-linecap="round" stroke-linejoin="round"/>
<path d="M247.39 43.74V41.51Z" fill="#FFAA00"/>
<path d="M247.39 43.74V41.51" stroke="#FFAA00" stroke-width="0.78" stroke-linecap="round" stroke-linejoin="round"/>
<path d="M250.58 42.87L249.47 40.94Z" fill="#FFAA00"/>
<path d="M250.58 42.87L249.47 40.94" stroke="#FFAA00" stroke-width="0.78" stroke-linecap="round" stroke-linejoin="round"/>
<path d="M252.9 40.54L250.98 39.43Z" fill="#FFAA00"/>
<path d="M252.9 40.54L250.98 39.43" stroke="#FFAA00" stroke-width="0.78" stroke-linecap="round" stroke-linejoin="round"/>
<path d="M253.76 37.35H251.54Z" fill="#FFAA00"/>
<path d="M253.76 37.35H251.54" stroke="#FFAA00" stroke-width="0.78" stroke-linecap="round" stroke-linejoin="round"/>
<path d="M252.9 34.16L250.98 35.27Z" fill="#FFAA00"/>
<path d="M252.9 34.16L250.98 35.27" stroke="#FFAA00" stroke-width="0.78" stroke-linecap="round" stroke-linejoin="round"/>
<path d="M250.58 31.82L249.47 33.75Z" fill="#FFAA00"/>
<path d="M250.58 31.82L249.47 33.75" stroke="#FFAA00" stroke-width="0.78" stroke-linecap="round" stroke-linejoin="round"/>
<path d="M247.39 31.6C247.74 31.6 248.03 31.31 248.03 30.96C248.03 30.61 247.74 30.32 247.39 30.32C247.04 30.32 246.75 30.61 246.75 30.96C246.75 31.31 247.04 31.6 247.39 31.6Z" fill="#FFAA00" stroke="#FFAA00" stroke-width="0.44" stroke-miterlimit="10"/>
<path d="M245.6 37.2C245.95 37.2 246.24 36.91 246.24 36.56C246.24 36.21 245.95 35.92 245.6 35.92C245.25 35.92 244.96 36.21 244.96 36.56C244.96 36.91 245.25 37.2 245.6 37.2Z" fill="#FFAA00" stroke="#FFAA00" stroke-width="0.44" stroke-miterlimit="10"/>
<path d="M248.62 36.33C248.97 36.33 249.26 36.04 249.26 35.69C249.26 35.34 248.97 35.05 248.62 35.05C248.27 35.05 247.98 35.34 247.98 35.69C247.98 36.04 248.27 36.33 248.62 36.33Z" fill="#FFAA00" stroke="#FFAA00" stroke-width="0.44" stroke-miterlimit="10"/>
<path d="M247.97 39.57C248.32 39.57 248.61 39.28 248.61 38.93C248.61 38.58 248.32 38.29 247.97 38.29C247.62 38.29 247.33 38.58 247.33 38.93C247.33 39.28 247.62 39.57 247.97 39.57Z" fill="#FFAA00" stroke="#FFAA00" stroke-width="0.44" stroke-miterlimit="10"/>
<path d="M244.2 32.47C244.55 32.47 244.84 32.18 244.84 31.83C244.84 31.48 244.55 31.19 244.2 31.19C243.85 31.19 243.56 31.48 243.56 31.83C243.56 32.18 243.85 32.47 244.2 32.47Z" fill="#FFAA00" stroke="#FFAA00" stroke-width="0.44" stroke-miterlimit="10"/>
<path d="M241.87 34.8C242.22 34.8 242.51 34.51 242.51 34.16C242.51 33.81 242.22 33.52 241.87 33.52C241.52 33.52 241.23 33.81 241.23 34.16C241.23 34.51 241.52 34.8 241.87 34.8Z" fill="#FFAA00" stroke="#FFAA00" stroke-width="0.44" stroke-miterlimit="10"/>
<path d="M241.87 41.19C242.22 41.19 242.51 40.9 242.51 40.55C242.51 40.2 242.22 39.91 241.87 39.91C241.52 39.91 241.23 40.2 241.23 40.55C241.23 40.9 241.52 41.19 241.87 41.19Z" fill="#FFAA00" stroke="#FFAA00" stroke-width="0.44" stroke-miterlimit="10"/>
<path d="M244.2 43.53C244.55 43.53 244.84 43.24 244.84 42.89C244.84 42.54 244.55 42.25 244.2 42.25C243.85 42.25 243.56 42.54 243.56 42.89C243.56 43.24 243.85 43.53 244.2 43.53Z" fill="#FFAA00" stroke="#FFAA00" stroke-width="0.44" stroke-miterlimit="10"/>
<path d="M247.39 44.38C247.74 44.38 248.03 44.09 248.03 43.74C248.03 43.39 247.74 43.1 247.39 43.1C247.04 43.1 246.75 43.39 246.75 43.74C246.75 44.09 247.04 44.38 247.39 44.38Z" fill="#FFAA00" stroke="#FFAA00" stroke-width="0.44" stroke-miterlimit="10"/>
<path d="M250.58 43.53C250.93 43.53 251.22 43.24 251.22 42.89C251.22 42.54 250.93 42.25 250.58 42.25C250.23 42.25 249.94 42.54 249.94 42.89C249.94 43.24 250.23 43.53 250.58 43.53Z" fill="#FFAA00" stroke="#FFAA00" stroke-width="0.44" stroke-miterlimit="10"/>
<path d="M252.9 41.19C253.25 41.19 253.54 40.9 253.54 40.55C253.54 40.2 253.25 39.91 252.9 39.91C252.55 39.91 252.26 40.2 252.26 40.55C252.26 40.9 252.55 41.19 252.9 41.19Z" fill="#FFAA00" stroke="#FFAA00" stroke-width="0.44" stroke-miterlimit="10"/>
<path d="M253.76 37.99C254.11 37.99 254.4 37.7 254.4 37.35C254.4 37 254.11 36.71 253.76 36.71C253.41 36.71 253.12 37 253.12 37.35C253.12 37.7 253.41 37.99 253.76 37.99Z" fill="#FFAA00" stroke="#FFAA00" stroke-width="0.44" stroke-miterlimit="10"/>
<path d="M252.9 34.8C253.25 34.8 253.54 34.51 253.54 34.16C253.54 33.81 253.25 33.52 252.9 33.52C252.55 33.52 252.26 33.81 252.26 34.16C252.26 34.51 252.55 34.8 252.9 34.8Z" fill="#FFAA00" stroke="#FFAA00" stroke-width="0.44" stroke-miterlimit="10"/>
<path d="M250.58 32.47C250.93 32.47 251.22 32.18 251.22 31.83C251.22 31.48 250.93 31.19 250.58 31.19C250.23 31.19 249.94 31.48 249.94 31.83C249.94 32.18 250.23 32.47 250.58 32.47Z" fill="#FFAA00" stroke="#FFAA00" stroke-width="0.44" stroke-miterlimit="10"/>
<path d="M240.37 37.99C240.72 37.99 241.01 37.7 241.01 37.35C241.01 37 240.72 36.71 240.37 36.71C240.02 36.71 239.73 37 239.73 37.35C239.73 37.7 240.02 37.99 240.37 37.99Z" fill="#FFAA00" stroke="#FFAA00" stroke-width="0.44" stroke-miterlimit="10"/>
<path d="M269.02 128.83C273.01 128.83 276.24 125.59 276.24 121.58C276.24 117.57 273.01 114.33 269.02 114.33C265.03 114.33 261.78 117.57 261.78 121.58C261.78 125.59 265.02 128.83 269.02 128.83Z" fill="#FFAA00" stroke="#FFAA00" stroke-width="0.68" stroke-miterlimit="10"/>
<path d="M269.02 111.73V115.18Z" fill="#FFAA00"/>
<path d="M269.02 111.73V115.18" stroke="#FFAA00" stroke-width="1.21" stroke-linecap="round" stroke-linejoin="round"/>
<path d="M264.1 113.05L265.82 116.03Z" fill="#FFAA00"/>
<path d="M264.1 113.05L265.82 116.03" stroke="#FFAA00" stroke-width="1.21" stroke-linecap="round" stroke-linejoin="round"/>
<path d="M260.5 116.66L263.46 118.38Z" fill="#FFAA00"/>
<path d="M260.5 116.66L263.46 118.38" stroke="#FFAA00" stroke-width="1.21" stroke-linecap="round" stroke-linejoin="round"/>
<path d="M259.19 121.58H262.61Z" fill="#FFAA00"/>
<path d="M259.19 121.58H262.61" stroke="#FFAA00" stroke-width="1.21" stroke-linecap="round" stroke-linejoin="round"/>
<path d="M260.5 126.52L263.46 124.8Z" fill="#FFAA00"/>
<path d="M260.5 126.52L263.46 124.8" stroke="#FFAA00" stroke-width="1.21" stroke-linecap="round" stroke-linejoin="round"/>
<path d="M264.1 130.12L265.82 127.14Z" fill="#FFAA00"/>
<path d="M264.1 130.12L265.82 127.14" stroke="#FFAA00" stroke-width="1.21" stroke-linecap="round" stroke-linejoin="round"/>
<path d="M269.02 131.45V128Z" fill="#FFAA00"/>
<path d="M269.02 131.45V128" stroke="#FFAA00" stroke-width="1.21" stroke-linecap="round" stroke-linejoin="round"/>
<path d="M273.94 130.12L272.22 127.14Z" fill="#FFAA00"/>
<path d="M273.94 130.12L272.22 127.14" stroke="#FFAA00" stroke-width="1.21" stroke-linecap="round" stroke-linejoin="round"/>
<path d="M277.53 126.52L274.57 124.8Z" fill="#FFAA00"/>
<path d="M277.53 126.52L274.57 124.8" stroke="#FFAA00" stroke-width="1.21" stroke-linecap="round" stroke-linejoin="round"/>
<path d="M278.85 121.58H275.43Z" fill="#FFAA00"/>
<path d="M278.85 121.58H275.43" stroke="#FFAA00" stroke-width="1.21" stroke-linecap="round" stroke-linejoin="round"/>
<path d="M277.53 116.66L274.57 118.38Z" fill="#FFAA00"/>
<path d="M277.53 116.66L274.57 118.38" stroke="#FFAA00" stroke-width="1.21" stroke-linecap="round" stroke-linejoin="round"/>
<path d="M273.94 113.05L272.22 116.03Z" fill="#FFAA00"/>
<path d="M273.94 113.05L272.22 116.03" stroke="#FFAA00" stroke-width="1.21" stroke-linecap="round" stroke-linejoin="round"/>
<path d="M269.02 112.72C269.57 112.72 270.01 112.27 270.01 111.73C270.01 111.19 269.56 110.74 269.02 110.74C268.48 110.74 268.03 111.19 268.03 111.73C268.03 112.27 268.48 112.72 269.02 112.72Z" fill="#FFAA00" stroke="#FFAA00" stroke-width="0.68" stroke-miterlimit="10"/>
<path d="M266.26 121.35C266.81 121.35 267.25 120.9 267.25 120.36C267.25 119.82 266.8 119.37 266.26 119.37C265.72 119.37 265.27 119.82 265.27 120.36C265.27 120.9 265.72 121.35 266.26 121.35Z" fill="#FFAA00" stroke="#FFAA00" stroke-width="0.68" stroke-miterlimit="10"/>
<path d="M270.92 120.02C271.47 120.02 271.91 119.57 271.91 119.03C271.91 118.49 271.46 118.04 270.92 118.04C270.38 118.04 269.93 118.49 269.93 119.03C269.93 119.57 270.38 120.02 270.92 120.02Z" fill="#FFAA00" stroke="#FFAA00" stroke-width="0.68" stroke-miterlimit="10"/>
<path d="M269.92 125.02C270.47 125.02 270.91 124.57 270.91 124.03C270.91 123.49 270.46 123.04 269.92 123.04C269.38 123.04 268.93 123.49 268.93 124.03C268.93 124.57 269.38 125.02 269.92 125.02Z" fill="#FFAA00" stroke="#FFAA00" stroke-width="0.68" stroke-miterlimit="10"/>
<path d="M264.1 114.05C264.65 114.05 265.09 113.6 265.09 113.06C265.09 112.52 264.64 112.07 264.1 112.07C263.56 112.07 263.11 112.52 263.11 113.06C263.11 113.6 263.56 114.05 264.1 114.05Z" fill="#FFAA00" stroke="#FFAA00" stroke-width="0.68" stroke-miterlimit="10"/>
<path d="M260.5 117.65C261.05 117.65 261.49 117.2 261.49 116.66C261.49 116.12 261.04 115.67 260.5 115.67C259.96 115.67 259.51 116.12 259.51 116.66C259.51 117.2 259.96 117.65 260.5 117.65Z" fill="#FFAA00" stroke="#FFAA00" stroke-width="0.68" stroke-miterlimit="10"/>
<path d="M260.5 127.51C261.05 127.51 261.49 127.06 261.49 126.52C261.49 125.98 261.04 125.53 260.5 125.53C259.96 125.53 259.51 125.98 259.51 126.52C259.51 127.06 259.96 127.51 260.5 127.51Z" fill="#FFAA00" stroke="#FFAA00" stroke-width="0.68" stroke-miterlimit="10"/>
<path d="M264.1 131.12C264.65 131.12 265.09 130.67 265.09 130.13C265.09 129.59 264.64 129.14 264.1 129.14C263.56 129.14 263.11 129.59 263.11 130.13C263.11 130.67 263.56 131.12 264.1 131.12Z" fill="#FFAA00" stroke="#FFAA00" stroke-width="0.68" stroke-miterlimit="10"/>
<path d="M269.02 132.44C269.57 132.44 270.01 131.99 270.01 131.45C270.01 130.91 269.56 130.46 269.02 130.46C268.48 130.46 268.03 130.91 268.03 131.45C268.03 131.99 268.48 132.44 269.02 132.44Z" fill="#FFAA00" stroke="#FFAA00" stroke-width="0.68" stroke-miterlimit="10"/>
<path d="M273.94 131.12C274.49 131.12 274.93 130.67 274.93 130.13C274.93 129.59 274.48 129.14 273.94 129.14C273.4 129.14 272.95 129.59 272.95 130.13C272.95 130.67 273.4 131.12 273.94 131.12Z" fill="#FFAA00" stroke="#FFAA00" stroke-width="0.68" stroke-miterlimit="10"/>
<path d="M277.53 127.51C278.08 127.51 278.52 127.06 278.52 126.52C278.52 125.98 278.07 125.53 277.53 125.53C276.99 125.53 276.54 125.98 276.54 126.52C276.54 127.06 276.99 127.51 277.53 127.51Z" fill="#FFAA00" stroke="#FFAA00" stroke-width="0.68" stroke-miterlimit="10"/>
<path d="M278.85 122.57C279.4 122.57 279.84 122.12 279.84 121.58C279.84 121.04 279.39 120.59 278.85 120.59C278.31 120.59 277.86 121.04 277.86 121.58C277.86 122.12 278.31 122.57 278.85 122.57Z" fill="#FFAA00" stroke="#FFAA00" stroke-width="0.68" stroke-miterlimit="10"/>
<path d="M277.53 117.65C278.08 117.65 278.52 117.2 278.52 116.66C278.52 116.12 278.07 115.67 277.53 115.67C276.99 115.67 276.54 116.12 276.54 116.66C276.54 117.2 276.99 117.65 277.53 117.65Z" fill="#FFAA00" stroke="#FFAA00" stroke-width="0.68" stroke-miterlimit="10"/>
<path d="M273.94 114.05C274.49 114.05 274.93 113.6 274.93 113.06C274.93 112.52 274.48 112.07 273.94 112.07C273.4 112.07 272.95 112.52 272.95 113.06C272.95 113.6 273.4 114.05 273.94 114.05Z" fill="#FFAA00" stroke="#FFAA00" stroke-width="0.68" stroke-miterlimit="10"/>
<path d="M258.19 122.57C258.74 122.57 259.18 122.12 259.18 121.58C259.18 121.04 258.73 120.59 258.19 120.59C257.65 120.59 257.2 121.04 257.2 121.58C257.2 122.12 257.65 122.57 258.19 122.57Z" fill="#FFAA00" stroke="#FFAA00" stroke-width="0.68" stroke-miterlimit="10"/>
<path d="M42.6601 120.89C45.1901 120.89 47.2401 118.83 47.2401 116.29C47.2401 113.75 45.1901 111.69 42.6601 111.69C40.1301 111.69 38.0701 113.75 38.0701 116.29C38.0701 118.83 40.1301 120.89 42.6601 120.89Z" fill="#BDD7F0"/>
<path d="M39.53 110.88L40.62 112.77Z" fill="#BDD7F0"/>
<path d="M37.25 113.17L39.13 114.26Z" fill="#BDD7F0"/>
<path d="M37.25 119.43L39.13 118.34Z" fill="#BDD7F0"/>
<path d="M39.53 121.71L40.62 119.82Z" fill="#BDD7F0"/>
<path d="M45.7801 121.71L44.6901 119.82Z" fill="#BDD7F0"/>
<path d="M48.0601 119.43L46.1801 118.34Z" fill="#BDD7F0"/>
<path d="M48.0601 113.17L46.1801 114.26Z" fill="#BDD7F0"/>
<path d="M45.7801 110.88L44.6901 112.77Z" fill="#BDD7F0"/>
<path d="M42.66 110.67C43.01 110.67 43.29 110.39 43.29 110.04C43.29 109.69 43.01 109.41 42.66 109.41C42.31 109.41 42.03 109.69 42.03 110.04C42.03 110.39 42.31 110.67 42.66 110.67Z" fill="#BDD7F0"/>
<path d="M40.91 116.15C41.26 116.15 41.54 115.87 41.54 115.52C41.54 115.17 41.26 114.89 40.91 114.89C40.56 114.89 40.28 115.17 40.28 115.52C40.28 115.87 40.56 116.15 40.91 116.15Z" fill="#BDD7F0"/>
<path d="M43.86 115.3C44.21 115.3 44.49 115.02 44.49 114.67C44.49 114.32 44.21 114.04 43.86 114.04C43.51 114.04 43.23 114.32 43.23 114.67C43.23 115.02 43.51 115.3 43.86 115.3Z" fill="#BDD7F0"/>
<path d="M43.23 118.47C43.58 118.47 43.86 118.19 43.86 117.84C43.86 117.49 43.58 117.21 43.23 117.21C42.88 117.21 42.6 117.49 42.6 117.84C42.6 118.19 42.88 118.47 43.23 118.47Z" fill="#BDD7F0"/>
<path d="M39.53 111.52C39.88 111.52 40.16 111.24 40.16 110.89C40.16 110.54 39.88 110.26 39.53 110.26C39.18 110.26 38.9 110.54 38.9 110.89C38.9 111.24 39.18 111.52 39.53 111.52Z" fill="#BDD7F0"/>
<path d="M37.25 113.8C37.6 113.8 37.88 113.52 37.88 113.17C37.88 112.82 37.6 112.54 37.25 112.54C36.9 112.54 36.62 112.82 36.62 113.17C36.62 113.52 36.9 113.8 37.25 113.8Z" fill="#BDD7F0"/>
<path d="M37.25 120.06C37.6 120.06 37.88 119.78 37.88 119.43C37.88 119.08 37.6 118.8 37.25 118.8C36.9 118.8 36.62 119.08 36.62 119.43C36.62 119.78 36.9 120.06 37.25 120.06Z" fill="#BDD7F0"/>
<path d="M39.53 122.35C39.88 122.35 40.16 122.07 40.16 121.72C40.16 121.37 39.88 121.09 39.53 121.09C39.18 121.09 38.9 121.37 38.9 121.72C38.9 122.07 39.18 122.35 39.53 122.35Z" fill="#BDD7F0"/>
<path d="M42.66 123.19C43.01 123.19 43.29 122.91 43.29 122.56C43.29 122.21 43.01 121.93 42.66 121.93C42.31 121.93 42.03 122.21 42.03 122.56C42.03 122.91 42.31 123.19 42.66 123.19Z" fill="#BDD7F0"/>
<path d="M45.78 122.35C46.13 122.35 46.41 122.07 46.41 121.72C46.41 121.37 46.13 121.09 45.78 121.09C45.43 121.09 45.15 121.37 45.15 121.72C45.15 122.07 45.43 122.35 45.78 122.35Z" fill="#BDD7F0"/>
<path d="M48.0601 120.06C48.4101 120.06 48.6901 119.78 48.6901 119.43C48.6901 119.08 48.4101 118.8 48.0601 118.8C47.7101 118.8 47.4301 119.08 47.4301 119.43C47.4301 119.78 47.7101 120.06 48.0601 120.06Z" fill="#BDD7F0"/>
<path d="M48.9 116.92C49.25 116.92 49.53 116.64 49.53 116.29C49.53 115.94 49.25 115.66 48.9 115.66C48.55 115.66 48.27 115.94 48.27 116.29C48.27 116.64 48.55 116.92 48.9 116.92Z" fill="#BDD7F0"/>
<path d="M48.0601 113.8C48.4101 113.8 48.6901 113.52 48.6901 113.17C48.6901 112.82 48.4101 112.54 48.0601 112.54C47.7101 112.54 47.4301 112.82 47.4301 113.17C47.4301 113.52 47.7101 113.8 48.0601 113.8Z" fill="#BDD7F0"/>
<path d="M45.78 111.52C46.13 111.52 46.41 111.24 46.41 110.89C46.41 110.54 46.13 110.26 45.78 110.26C45.43 110.26 45.15 110.54 45.15 110.89C45.15 111.24 45.43 111.52 45.78 111.52Z" fill="#BDD7F0"/>
<path d="M35.78 116.92C36.13 116.92 36.41 116.64 36.41 116.29C36.41 115.94 36.13 115.66 35.78 115.66C35.43 115.66 35.15 115.94 35.15 116.29C35.15 116.64 35.43 116.92 35.78 116.92Z" fill="#BDD7F0"/>
<path d="M222.73 18.94L223.24 18.04C225.4 14.91 227.82 13.43 231.51 12.91L231.56 13.1C227.87 13.62 225.54 15.08 223.42 18.15C221.19 21.4 220.76 25.66 222.35 29.01C223.94 32.36 226.83 34.38 230.51 34.72L230.41 34.9C226.69 34.62 223.75 32.56 222.19 29.16C220.71 26.04 220.94 22.13 222.73 18.96V18.94Z" fill="url(#paint3_linear_0_1)"/>
<path d="M222.73 18.94L223.15 19.18L223.66 18.28C224.66 16.79 225.76 15.67 227.06 14.91C228.3 14.11 229.74 13.66 231.58 13.35L231.54 12.86L231.07 12.99L231.12 13.18L231.59 13.05L231.55 12.56C229.66 12.84 228.09 13.37 226.69 14.17C225.32 15.06 224.12 16.2 223.06 17.81L222.55 18.71C220.72 21.95 220.46 25.91 222.03 29.16C223.01 31.21 224.47 32.83 226.26 33.84C227.52 34.55 229.01 34.99 230.57 35.16L230.59 34.7L230.17 34.46L230.07 34.64L230.49 34.88L230.51 34.42C229.07 34.32 227.7 33.94 226.5 33.26C224.82 32.31 223.51 30.86 222.68 28.97C221.26 26.03 221.47 22.28 223.2 19.23L222.36 18.76C220.5 22.06 220.27 26.11 221.8 29.43C222.74 31.54 224.2 33.16 226.06 34.2C227.38 34.94 228.81 35.35 230.46 35.5L230.77 35.52L231.38 34.44L230.65 34.34C229.21 34.24 227.87 33.8 226.73 33.16C225.11 32.25 223.8 30.79 222.87 28.93C221.51 26.03 221.69 22.34 223.38 19.34L223.85 18.5C224.85 17.01 225.95 15.89 227.16 15.15C228.4 14.35 229.84 13.9 231.64 13.65L232.17 13.55L231.86 12.42L231.43 12.49C229.54 12.77 227.91 13.27 226.54 14.16C225.11 15.01 223.94 16.25 222.81 17.83L222.3 18.73L222.72 18.97L222.73 18.94Z" fill="#0F65B2"/>
<path d="M206.15 23.82C215.83 25.01 223.68 25.25 232.45 24.83L232.38 24.95C223.67 25.41 215.82 25.17 206.14 23.98L206.24 23.8L206.21 23.86L206.15 23.83V23.82Z" fill="url(#paint4_linear_0_1)"/>
<path d="M206.15 23.82L206.13 24.28C215.81 25.47 223.72 25.74 232.52 25.26L232.48 24.77L232.06 24.53L231.99 24.65L232.41 24.89L232.37 24.4C223.66 24.86 215.87 24.65 206.22 23.4L206.2 23.86L206.62 24.1L207.3 22.9L203.74 23.89L206.1 24.19L206.12 23.73L206.25 24.2L206.28 24.14L206.21 23.71L205.79 23.47L205.35 24.25L206.08 24.35C215.76 25.54 223.67 25.81 232.41 25.3L232.66 25.28L233.3 24.14L232.4 24.19C223.63 24.61 215.84 24.41 206.19 23.16L206.17 23.62L206.13 23.83L206.15 23.82Z" fill="#0F65B2"/>
<path d="M221.43 24.46C223.93 20.02 227.43 17.89 232.05 17.96L231.98 18.08C227.33 18.06 223.86 20.29 221.37 24.98C223.61 28.3 227.03 30.07 231.64 30.3L231.57 30.42C226.93 30.25 223.41 28.35 221.21 24.97L221.48 24.49L221.42 24.46H221.43Z" fill="url(#paint5_linear_0_1)"/>
<path d="M221.43 24.46L221.85 24.7C223.07 22.54 224.5 20.98 226.19 19.96C227.87 18.93 229.81 18.45 232.03 18.43L232.05 17.97L231.63 17.73L231.56 17.85L231.98 18.09L232 17.63C229.72 17.61 227.6 18.15 225.79 19.26C223.98 20.37 222.48 22.05 221.23 24.27L220.96 24.75L220.82 24.99L220.99 25.25C222.05 26.87 223.4 28.11 225.02 29.03C226.88 30.08 229.07 30.68 231.62 30.78L231.64 30.32L231.22 30.08L231.15 30.2L231.57 30.44L231.59 29.98C229.19 29.89 227.12 29.36 225.44 28.41C223.88 27.53 222.59 26.33 221.65 24.77L221.27 25.03L221.69 25.27L222.2 24.37L221.72 24.1L221.48 24.52L221.06 24.28L220.65 25L220.82 25.26C221.94 26.92 223.32 28.25 225 29.2C226.86 30.25 229.05 30.85 231.6 30.95L231.91 30.97L232.52 29.89L231.75 29.85C229.35 29.76 227.32 29.17 225.58 28.19C224.08 27.34 222.85 26.17 221.84 24.74L221.46 25L221.88 25.24L222.15 24.76C223.37 22.6 224.77 21.1 226.39 20.04C228.01 18.98 229.92 18.55 232.08 18.51L232.39 18.53L233 17.45L232.2 17.47C229.83 17.47 227.64 17.98 225.83 19.09C224.02 20.2 222.42 21.91 221.14 24.19L220.9 24.61L221.32 24.85L221.56 24.43L221.43 24.52V24.46Z" fill="#0F65B2"/>
<path d="M231.18 36.04C230.52 35.67 230.32 34.76 230.69 34.1C231.06 33.44 231.97 33.24 232.63 33.61C233.29 33.98 233.49 34.89 233.12 35.55C232.75 36.21 231.84 36.41 231.18 36.04Z" fill="white"/>
<path d="M231.18 36.04L231.42 35.62C231.24 35.52 231.07 35.26 231.02 35.08C231 34.83 230.98 34.59 231.12 34.35C231.22 34.17 231.48 34 231.66 33.95C231.91 33.93 232.15 33.91 232.39 34.05C232.57 34.15 232.74 34.41 232.79 34.59C232.81 34.84 232.83 35.08 232.69 35.32C232.59 35.5 232.33 35.67 232.15 35.72C231.9 35.74 231.66 35.76 231.42 35.62L230.95 36.46C231.37 36.7 231.89 36.75 232.36 36.62C232.83 36.49 233.31 36.2 233.54 35.79C233.77 35.38 233.83 34.85 233.7 34.38C233.57 33.91 233.28 33.43 232.87 33.2C232.46 32.97 231.93 32.91 231.46 33.04C230.99 33.17 230.51 33.46 230.28 33.87C230.05 34.28 229.99 34.81 230.12 35.28C230.25 35.75 230.54 36.23 230.95 36.46L231.19 36.04H231.18Z" fill="#0F65B2"/>
<path d="M233.06 31.84C233.822 31.84 234.44 31.2222 234.44 30.46C234.44 29.6978 233.822 29.08 233.06 29.08C232.298 29.08 231.68 29.6978 231.68 30.46C231.68 31.2222 232.298 31.84 233.06 31.84Z" fill="white"/>
<path d="M234.26 31.14L233.84 30.9C233.6 31.32 233.04 31.48 232.62 31.24C232.2 31 232.04 30.44 232.28 30.02C232.52 29.6 233.08 29.44 233.5 29.68C233.92 29.92 234.08 30.48 233.84 30.9L234.68 31.37C235.19 30.47 234.87 29.35 233.97 28.84C233.07 28.33 231.95 28.65 231.44 29.55C230.93 30.45 231.25 31.57 232.15 32.08C233.05 32.59 234.17 32.27 234.68 31.37L234.26 31.13V31.14Z" fill="#0F65B2"/>
<path d="M233.15 24.43C233.39 24.01 233.95 23.85 234.37 24.09C234.79 24.33 234.95 24.89 234.71 25.31L235.55 25.78C236.06 24.88 235.74 23.76 234.84 23.25C233.94 22.74 232.82 23.06 232.31 23.96C231.8 24.86 232.12 25.98 233.02 26.49C233.92 27 235.04 26.68 235.55 25.78L234.71 25.31" fill="#0F65B2"/>
<path d="M233.46 19.51C234.222 19.51 234.84 18.8922 234.84 18.13C234.84 17.3678 234.222 16.75 233.46 16.75C232.698 16.75 232.08 17.3678 232.08 18.13C232.08 18.8922 232.698 19.51 233.46 19.51Z" fill="white"/>
<path d="M234.66 18.8L234.24 18.56C234 18.98 233.44 19.14 233.02 18.9C232.6 18.66 232.44 18.1 232.68 17.68C232.92 17.26 233.48 17.1 233.9 17.34C234.32 17.58 234.48 18.14 234.24 18.56L235.08 19.03C235.59 18.13 235.27 17.01 234.37 16.5C233.47 15.99 232.35 16.31 231.84 17.21C231.33 18.11 231.65 19.23 232.55 19.74C233.45 20.25 234.57 19.93 235.08 19.03L234.66 18.79V18.8Z" fill="#0F65B2"/>
<path d="M232.95 14.24C233.712 14.24 234.33 13.6221 234.33 12.86C234.33 12.0978 233.712 11.48 232.95 11.48C232.188 11.48 231.57 12.0978 231.57 12.86C231.57 13.6221 232.188 14.24 232.95 14.24Z" fill="white"/>
<path d="M234.15 13.54L233.73 13.3C233.49 13.72 232.93 13.88 232.51 13.64C232.09 13.4 231.93 12.84 232.17 12.42C232.41 12 232.97 11.84 233.39 12.08C233.81 12.32 233.97 12.88 233.73 13.3L234.57 13.77C235.08 12.87 234.76 11.75 233.86 11.24C232.96 10.73 231.84 11.05 231.33 11.95C230.82 12.85 231.14 13.97 232.04 14.48C232.94 14.99 234.06 14.67 234.57 13.77L234.15 13.53V13.54Z" fill="#0F65B2"/>
<path d="M262.89 59.96L262.47 58.76C261.34 54.22 261.94 50.79 264.46 46.96L264.68 47.06C262.16 50.89 261.61 54.22 262.71 58.68C263.89 63.38 267.48 67.24 271.86 68.5C276.24 69.76 280.46 68.74 283.76 65.62L283.84 65.86C280.56 69.06 276.26 70.1 271.86 68.77C267.78 67.59 264.36 64.21 262.89 59.97V59.96Z" fill="url(#paint6_linear_0_1)"/>
<path d="M262.89 59.96L263.45 59.77L263.03 58.57C262.47 56.44 262.34 54.51 262.69 52.68C262.96 50.88 263.72 49.19 264.92 47.24L264.43 46.87L264.17 47.41L264.39 47.51L264.65 46.97L264.16 46.6C262.87 48.57 262.09 50.45 261.69 52.39C261.39 54.37 261.47 56.41 262.09 58.7L262.51 59.9C264.01 64.22 267.45 67.68 271.73 68.89C274.42 69.66 277.09 69.63 279.49 68.79C281.17 68.21 282.79 67.2 284.22 65.89L283.81 65.49L283.25 65.68L283.33 65.92L283.89 65.73L283.48 65.33C282.21 66.58 280.75 67.53 279.15 68.09C276.91 68.87 274.5 68.9 272.08 68.13C268.21 67.05 264.93 63.8 263.51 59.72L262.39 60.11C263.92 64.51 267.47 68.02 271.77 69.31C274.48 70.16 277.16 70.13 279.64 69.26C281.4 68.65 282.94 67.67 284.42 66.26L284.68 65.99L284.18 64.55L283.49 65.15C282.22 66.4 280.73 67.27 279.21 67.8C277.05 68.55 274.64 68.58 272.17 67.92C268.38 66.82 265.13 63.64 263.74 59.65L263.35 58.53C262.79 56.4 262.66 54.47 262.96 52.75C263.23 50.95 263.99 49.26 265.22 47.39L265.56 46.82L264.27 46.19L263.98 46.65C262.69 48.62 261.83 50.53 261.54 52.52C261.16 54.53 261.35 56.62 261.89 58.94L262.31 60.14L262.87 59.95L262.89 59.96Z" fill="#0F65B2"/>
<path d="M253.9 79.21C262.88 71.25 269.48 64.21 276.23 55.77L276.29 55.93C269.62 64.34 263.02 71.38 254.04 79.34L253.96 79.1L253.99 79.18L253.91 79.21H253.9Z" fill="url(#paint7_linear_0_1)"/>
<path d="M253.9 79.21L254.31 79.61C263.29 71.65 269.97 64.58 276.69 56.06L276.2 55.69L275.64 55.88L275.7 56.04L276.26 55.85L275.77 55.48C269.1 63.89 262.58 70.91 253.57 78.78L253.98 79.18L254.54 78.99L253.98 77.39L252 81.48L254.2 79.55L253.79 79.15L254.33 79.41L254.3 79.33L253.84 79.04L253.28 79.23L253.64 80.27L254.33 79.67C263.31 71.71 269.99 64.64 276.63 56.15L276.81 55.91L276.28 54.39L275.59 55.26C268.84 63.7 262.32 70.71 253.32 78.59L253.73 78.99L253.89 79.2L253.9 79.21Z" fill="#0F65B2"/>
<path d="M266.92 65.64C264.86 59.72 265.74 54.76 269.57 50.56L269.63 50.72C265.83 55 265.06 60.01 267.36 66.12C272.24 66.75 276.66 65.04 280.63 60.97L280.69 61.13C276.75 65.28 272.14 66.97 267.23 66.25L267.01 65.61L266.93 65.64H266.92Z" fill="url(#paint8_linear_0_1)"/>
<path d="M266.92 65.64L267.48 65.45C266.48 62.57 266.21 59.98 266.63 57.59C267.06 55.2 268.18 53.02 269.97 50.96L269.56 50.56L269 50.75L269.06 50.91L269.62 50.72L269.21 50.32C267.34 52.4 266.11 54.8 265.66 57.38C265.21 59.96 265.54 62.71 266.57 65.67L266.79 66.31L266.9 66.63L267.28 66.68C269.64 67.03 271.89 66.78 274.05 66.03C276.53 65.17 278.87 63.64 281.03 61.36L280.62 60.96L280.06 61.15L280.12 61.31L280.68 61.12L280.27 60.72C278.24 62.86 276.06 64.33 273.82 65.11C271.74 65.83 269.58 66.05 267.37 65.65L267.3 66.21L267.86 66.02L267.44 64.82L266.8 65.04L266.99 65.6L266.43 65.79L266.76 66.75L267.14 66.8C269.58 67.12 271.93 66.93 274.17 66.15C276.65 65.29 278.99 63.76 281.15 61.48L281.41 61.21L280.91 59.77L280.25 60.45C278.22 62.59 276.01 63.98 273.69 64.79C271.69 65.48 269.61 65.67 267.46 65.43L267.39 65.99L267.95 65.8L267.73 65.16C266.73 62.28 266.48 59.77 266.83 57.41C267.18 55.05 268.33 52.95 270.04 50.92L270.3 50.65L269.8 49.21L269.17 49.97C267.24 52.16 265.94 54.59 265.49 57.16C265.04 59.74 265.32 62.6 266.37 65.64L266.56 66.2L267.12 66.01L266.93 65.45L266.91 65.64H266.92Z" fill="#0F65B2"/>
<path d="M285.54 66.07C284.66 66.38 283.66 65.83 283.36 64.95C283.06 64.07 283.6 63.07 284.48 62.77C285.36 62.47 286.36 63.01 286.66 63.89C286.96 64.77 286.42 65.77 285.54 66.07Z" fill="white"/>
<path d="M285.54 66.07L285.35 65.51C285.11 65.59 284.73 65.54 284.52 65.44C284.28 65.26 284.03 65.07 283.92 64.75C283.84 64.51 283.89 64.13 283.99 63.92C284.17 63.68 284.36 63.43 284.68 63.32C284.92 63.24 285.3 63.29 285.51 63.39C285.75 63.57 286 63.76 286.11 64.08C286.19 64.32 286.14 64.7 286.04 64.91C285.86 65.15 285.67 65.4 285.35 65.51L285.74 66.63C286.3 66.44 286.78 66 287.04 65.46C287.3 64.92 287.43 64.25 287.23 63.69C287.03 63.13 286.6 62.65 286.06 62.39C285.52 62.13 284.85 62 284.29 62.2C283.73 62.4 283.25 62.83 282.99 63.37C282.73 63.91 282.6 64.58 282.8 65.14C283 65.7 283.43 66.18 283.97 66.44C284.51 66.7 285.18 66.83 285.74 66.63L285.55 66.07H285.54Z" fill="#0F65B2"/>
<path d="M281.92 61.49C282.853 61.49 283.61 60.7334 283.61 59.8C283.61 58.8666 282.853 58.11 281.92 58.11C280.987 58.11 280.23 58.8666 280.23 59.8C280.23 60.7334 280.987 61.49 281.92 61.49Z" fill="white"/>
<path d="M283.52 59.24L282.96 59.43C283.15 59.99 282.84 60.64 282.28 60.83C281.72 61.02 281.07 60.71 280.88 60.15C280.69 59.59 281 58.94 281.56 58.75C282.12 58.56 282.77 58.87 282.96 59.43L284.08 59.04C283.66 57.84 282.37 57.21 281.17 57.63C279.97 58.05 279.34 59.34 279.76 60.54C280.18 61.74 281.47 62.37 282.67 61.95C283.87 61.53 284.5 60.24 284.08 59.04L283.52 59.23V59.24Z" fill="#0F65B2"/>
<path d="M276.43 54.81C276.24 54.25 276.55 53.6 277.11 53.41C277.67 53.22 278.32 53.53 278.51 54.09L279.63 53.7C279.21 52.5 277.92 51.87 276.72 52.29C275.52 52.71 274.89 54 275.31 55.2C275.73 56.4 277.02 57.03 278.22 56.61C279.42 56.19 280.05 54.9 279.63 53.7L278.51 54.09" fill="#0F65B2"/>
<path d="M270.87 51.08C271.803 51.08 272.56 50.3234 272.56 49.39C272.56 48.4566 271.803 47.7 270.87 47.7C269.937 47.7 269.18 48.4566 269.18 49.39C269.18 50.3234 269.937 51.08 270.87 51.08Z" fill="white"/>
<path d="M272.47 48.84L271.91 49.03C272.1 49.59 271.79 50.24 271.23 50.43C270.67 50.62 270.02 50.31 269.83 49.75C269.64 49.19 269.95 48.54 270.51 48.35C271.07 48.16 271.72 48.47 271.91 49.03L273.03 48.64C272.61 47.44 271.32 46.81 270.12 47.23C268.92 47.65 268.29 48.94 268.71 50.14C269.13 51.34 270.42 51.97 271.62 51.55C272.82 51.13 273.45 49.84 273.03 48.64L272.47 48.83V48.84Z" fill="#0F65B2"/>
<path d="M265.6 47.27C266.533 47.27 267.29 46.5134 267.29 45.58C267.29 44.6466 266.533 43.89 265.6 43.89C264.667 43.89 263.91 44.6466 263.91 45.58C263.91 46.5134 264.667 47.27 265.6 47.27Z" fill="white"/>
<path d="M267.2 45.02L266.64 45.21C266.83 45.77 266.52 46.42 265.96 46.61C265.4 46.8 264.75 46.49 264.56 45.93C264.37 45.37 264.68 44.72 265.24 44.53C265.8 44.34 266.45 44.65 266.64 45.21L267.76 44.82C267.34 43.62 266.05 42.99 264.85 43.41C263.65 43.83 263.02 45.12 263.44 46.32C263.86 47.52 265.15 48.15 266.35 47.73C267.55 47.31 268.18 46.02 267.76 44.82L267.2 45.01V45.02Z" fill="#0F65B2"/>
</g>
<defs>
<linearGradient id="paint0_linear_0_1" x1="45.69" y1="36.44" x2="73.59" y2="36.44" gradientUnits="userSpaceOnUse">
<stop stop-color="white"/>
<stop offset="1" stop-color="#1D1D1B"/>
</linearGradient>
<linearGradient id="paint1_linear_0_1" x1="58.9669" y1="46.62" x2="75.4279" y2="46.62" gradientUnits="userSpaceOnUse">
<stop stop-color="white"/>
<stop offset="1" stop-color="#1D1D1B"/>
</linearGradient>
<linearGradient id="paint2_linear_0_1" x1="51.191" y1="36.153" x2="68.582" y2="36.153" gradientUnits="userSpaceOnUse">
<stop stop-color="white"/>
<stop offset="1" stop-color="#1D1D1B"/>
</linearGradient>
<linearGradient id="paint3_linear_0_1" x1="233.819" y1="15.6709" x2="223.648" y2="33.6997" gradientUnits="userSpaceOnUse">
<stop stop-color="white"/>
<stop offset="1" stop-color="#1D1D1B"/>
</linearGradient>
<linearGradient id="paint4_linear_0_1" x1="222.272" y1="19.81" x2="216.271" y2="30.447" gradientUnits="userSpaceOnUse">
<stop stop-color="white"/>
<stop offset="1" stop-color="#1D1D1B"/>
</linearGradient>
<linearGradient id="paint5_linear_0_1" x1="231.966" y1="18.6549" x2="225.626" y2="29.8929" gradientUnits="userSpaceOnUse">
<stop stop-color="white"/>
<stop offset="1" stop-color="#1D1D1B"/>
</linearGradient>
<linearGradient id="paint6_linear_0_1" x1="265.756" y1="44.4658" x2="274.126" y2="68.5532" gradientUnits="userSpaceOnUse">
<stop stop-color="white"/>
<stop offset="1" stop-color="#1D1D1B"/>
</linearGradient>
<linearGradient id="paint7_linear_0_1" x1="261.636" y1="59.6286" x2="266.573" y2="73.8402" gradientUnits="userSpaceOnUse">
<stop stop-color="white"/>
<stop offset="1" stop-color="#1D1D1B"/>
</linearGradient>
<linearGradient id="paint8_linear_0_1" x1="268.341" y1="49.7115" x2="273.558" y2="64.726" gradientUnits="userSpaceOnUse">
<stop stop-color="white"/>
<stop offset="1" stop-color="#1D1D1B"/>
</linearGradient>
<clipPath id="clip0_0_1">
<rect width="293.81" height="220.69" fill="white" transform="translate(6 11)"/>
</clipPath>
</defs>
</svg>
