<svg width="32" height="32" viewBox="0 0 32 32" fill="none" xmlns="http://www.w3.org/2000/svg">
<path d="M4.5498 13.2109C4.5498 13.2109 4.70146 13.2843 4.85312 13.3577C9.40289 15.3394 12.5119 19.7431 12.5119 24.8807V31.9999H19.8674V25.9082C19.8674 18.8623 14.0285 13.2109 6.74886 13.2109H4.5498Z" fill="url(#paint0_linear)"/>
<path d="M0 13.2109V20.3302H6.36966C8.18957 20.3302 9.78198 21.2109 10.6919 22.6054C10.3128 18.6421 7.96208 15.266 4.70142 13.2109H0Z" fill="url(#paint1_linear)"/>
<path d="M27.4502 18.7891C27.4502 18.7891 27.2985 18.7157 27.1469 18.6423C22.5971 16.6606 19.4881 12.257 19.4881 7.11933L19.4881 6.60835e-05L12.1326 6.54611e-05L12.1326 6.09181C12.1326 13.1377 17.9715 18.7891 25.2511 18.7891L27.4502 18.7891Z" fill="url(#paint2_linear)"/>
<path d="M32 18.7891L32 11.6698L25.6303 11.6698C23.8104 11.6698 22.218 10.7891 21.3081 9.39456C21.6872 13.3579 24.0379 16.734 27.2986 18.7891L32 18.7891Z" fill="url(#paint3_linear)"/>
<defs>
<linearGradient id="paint0_linear" x1="12.2086" y1="13.2109" x2="12.2086" y2="31.9999" gradientUnits="userSpaceOnUse">
<stop stop-color="#93C155"/>
<stop offset="1" stop-color="#00AC35"/>
</linearGradient>
<linearGradient id="paint1_linear" x1="5.34597" y1="13.2109" x2="5.34597" y2="22.6054" gradientUnits="userSpaceOnUse">
<stop stop-color="#113A6F"/>
<stop offset="0.713542" stop-color="#235FA3"/>
</linearGradient>
<linearGradient id="paint2_linear" x1="19.7914" y1="18.7891" x2="19.7914" y2="6.61092e-05" gradientUnits="userSpaceOnUse">
<stop offset="0.140625" stop-color="#10396E"/>
<stop offset="0.677083" stop-color="#225EA3"/>
</linearGradient>
<linearGradient id="paint3_linear" x1="26.654" y1="18.7891" x2="26.654" y2="9.39456" gradientUnits="userSpaceOnUse">
<stop stop-color="#92C156"/>
<stop offset="0.796875" stop-color="#00AC35"/>
</linearGradient>
</defs>
</svg>
