<svg width="90" height="26" viewBox="0 0 140 42" fill="none" xmlns="http://www.w3.org/2000/svg">
    <path d="M4.764 36.298V20.866H0V36c.003 3.148 2.595 5.792 5.784 5.792h6.962v-4.186H6.07a1.307 1.307 0 0 1-1.307-1.308zM24.515 34.657c0 1.87-1.076 2.988-2.877 2.988-1.786 0-2.85-1.117-2.85-2.989v-13.79h-4.884v13.925c0 4.176 3.254 7.209 7.734 7.209 4.477 0 7.73-3.033 7.73-7.21V20.867h-4.853v13.79zM48.329 20.866h-5.44l-3.043 5.819-3.025-5.819H31.36l5.863 10.21-6.248 10.716h5.494l3.377-6.344 3.397 6.344h5.495l-6.277-10.717 5.868-10.209zM60.366 31.645l-4.649-10.779h-4.505v20.926h4.75V30.207l2.833 7.71h3.15l2.8-7.694v11.57h4.748V20.865h-4.501l-4.626 10.779zM73.09 38.112a3.66 3.66 0 0 0 3.655 3.663l.046-.002h9.88V37.59h-8.83v-4.624h7.522v-3.956H77.84v-3.974h8.83V20.85H73.09v17.262zM99.599 34.538c-.1.986-.271 1.719-.567 2.081-.565.682-1.302.987-2.394.987h-2.304V25.051h2.304c1.087 0 1.828.305 2.392.987.286.348.458.793.559 1.474.106.723.133 1.869.133 3.298 0 1.357-.023 2.746-.123 3.728zm4.9-3.018-.005-.71.005-.71c.016-2.65.031-5.154-2.094-7.267-1.292-1.287-3.166-1.967-5.418-1.967h-7.425v20.926h7.425c2.252 0 4.126-.681 5.418-1.968 2.127-2.11 2.11-5.689 2.094-8.304z" fill="#0BB14B"/>
    <path d="M108.658 20.897h6.303c1.805 0 3.399.92 4.337 2.315-.414-4.06-2.686-7.541-5.944-9.638h-4.696v7.323z" fill="#0066B3"/>
    <path d="M140 12.002h-6.305a5.225 5.225 0 0 1-4.337-2.314c.417 4.059 2.685 7.54 5.945 9.636H140v-7.322z" fill="#0BB14B"/>
    <path d="M133.733 19.333h2.188s-.149-.059-.305-.137c-4.499-2.064-7.629-6.612-7.629-11.895V0h-7.316v6.255c0 7.222 5.849 13.078 13.062 13.078z" fill="#0066B3"/>
    <path d="M114.925 13.574h-2.189s.152.058.304.137a13.077 13.077 0 0 1 7.631 11.895v7.322h7.316v-6.277c0-7.222-5.848-13.077-13.062-13.077z" fill="#0BB14B"/>
</svg>
