<svg width="24" height="24" viewBox="0 0 24 24" fill="none" xmlns="http://www.w3.org/2000/svg">
<path d="M6.66699 10.6667V3.33333C6.66699 3.33333 6.66699 2 8.0003 2C9.3336 2 16.6668 2 16.6668 2L22 7.33333V20.6667C22 20.6667 22 22 20.6667 22C19.3334 22 9.3336 22 8.0003 22C6.66699 22 6.66699 20.6667 6.66699 20.6667V16" stroke="#005AA9" stroke-linecap="round" stroke-linejoin="round"/>
<path d="M16.6672 2V7.33333H22.0005" stroke="#005AA9" stroke-linecap="round" stroke-linejoin="round"/>
<path d="M6.66699 10.6663H12.0002V7.33301L19.3334 13.333L12.0002 19.333V15.9997H6.66699" stroke="#005AA9" stroke-linecap="round" stroke-linejoin="round"/>
<path d="M6.66657 15.9998C4.13329 15.9998 2 13.8665 2 11.3332C2 8.79984 4.13329 6.6665 6.66657 6.6665" stroke="#005AA9" stroke-linecap="round" stroke-linejoin="round"/>
<path d="M6.66695 10.6665C5.60031 10.6665 4.66699 9.73317 4.66699 8.6665C4.66699 7.59984 5.60031 6.6665 6.66695 6.6665" stroke="#005AA9" stroke-linecap="round" stroke-linejoin="round"/>
</svg>
