<svg width="24" height="24" viewBox="0 0 24 24" fill="none" xmlns="http://www.w3.org/2000/svg">
<path d="M3.25 10.6814C3.25 10.0854 3.5158 9.52045 3.97497 9.1405L10.725 3.55506C11.4648 2.94289 12.5352 2.94289 13.275 3.55505L20.025 9.1405C20.4842 9.52045 20.75 10.0854 20.75 10.6814V19C20.75 20.1046 19.8546 21 18.75 21H5.25C4.14543 21 3.25 20.1046 3.25 19V10.6814Z" stroke="#717171"/>
<path d="M8.63283 13.625C8.63282 13.0727 9.08054 12.625 9.63283 12.625H14.3636C14.9159 12.625 15.3636 13.0727 15.3636 13.625L15.3637 21H8.63293L8.63283 13.625Z" stroke="#717171"/>
</svg>
