<svg width="24" height="24" viewBox="0 0 24 24" fill="none" xmlns="http://www.w3.org/2000/svg">
<path d="M7.53057 4.09244C7.53057 4.09244 6.23399 4.09244 5.2769 5.04465C4.20022 6.11584 4.2295 7.41448 4.2295 7.41448" stroke="#005AA9" stroke-linecap="round"/>
<path d="M20.0542 7.35784C20.0542 7.35784 19.9439 9.06482 19.5915 11.003C19.3439 12.3649 18.7216 14.4059 18.7216 14.4059" stroke="#005AA9" stroke-linecap="round"/>
<path d="M1.76777 5.79086C2.5008 3.54838 4.02656 2.0218 6.32985 1.51103C9.01827 0.914856 10.0526 2.48437 11.9592 2.48437C14.336 2.48437 15.2279 0.967406 17.5467 1.39618C19.9163 1.83433 21.8995 3.36332 22.565 5.61955C22.9764 7.01411 22.565 11.5667 21.3703 15.177C20.2846 18.4582 18.919 22.68 16.7336 22.68C15.7834 22.68 14.8356 21.4653 14.2704 20.4098C13.5358 19.0378 13.3056 17.8331 12.2386 17.8331C11.0011 17.8331 10.9786 18.7639 10.0851 20.281C9.42872 21.3955 8.55993 22.68 7.68415 22.68C5.22084 22.68 3.69937 17.6494 2.83503 14.7057C1.8364 11.3047 1.22608 7.44796 1.76777 5.79086Z" stroke="#005AA9"/>
</svg>
