<svg width="16" height="16" viewBox="0 0 16 16" fill="none" xmlns="http://www.w3.org/2000/svg">
<path d="M2 2L2 13C2 13.5523 2.44772 14 3 14H15" stroke="#005AA9" stroke-linecap="round" stroke-linejoin="round"/>
<path d="M1.67586 8.1193C1.4656 8.29832 1.44028 8.61389 1.6193 8.82414C1.79832 9.0344 2.11389 9.05972 2.32414 8.8807L1.67586 8.1193ZM5 5.94567L5.39645 5.641C5.313 5.53241 5.18866 5.4628 5.05246 5.44843C4.91626 5.43406 4.78013 5.47619 4.67586 5.56497L5 5.94567ZM8.5 10.5L8.10355 10.8047C8.19978 10.9299 8.34952 11.0023 8.50744 10.9999C8.66535 10.9976 8.81287 10.9208 8.90534 10.7927L8.5 10.5ZM12.1111 5.5L12.377 5.07655C12.1538 4.9364 11.8601 4.99358 11.7058 5.20725L12.1111 5.5ZM14.2341 7.42344C14.468 7.57029 14.7766 7.49975 14.9234 7.26588C15.0703 7.03202 14.9997 6.7234 14.7659 6.57656L14.2341 7.42344ZM2.32414 8.8807L5.32414 6.32637L4.67586 5.56497L1.67586 8.1193L2.32414 8.8807ZM4.60355 6.25034L8.10355 10.8047L8.89645 10.1953L5.39645 5.641L4.60355 6.25034ZM8.90534 10.7927L12.5164 5.79275L11.7058 5.20725L8.09466 10.2073L8.90534 10.7927ZM11.8452 5.92345L14.2341 7.42344L14.7659 6.57656L12.377 5.07655L11.8452 5.92345Z" fill="#005AA9"/>
</svg>
